<svg id="SVGRoot" width="256" height="256" version="1.1" viewBox="0 0 256 256" xmlns="http://www.w3.org/2000/svg">
 <g transform="translate(0,240)">
  <path d="m32-176c-17.728 0-32 14.272-32 32v64c0 17.728 14.272 32 32 32h176l48 48v-144c0-2.216-0.232-4.3819-0.656-6.4688-0.8496-4.1738-2.4854-8.0338-4.7811-11.438-5.74-8.5094-15.486-14.357-26.563-14.094z" stroke-width="16"/>
  <path d="m32-176c-17.728 0-32 14.272-32 32v64c0 17.728 14.272 32 32 32h176l48 48v-144c0-2.216-0.232-4.3819-0.656-6.4688-0.8496-4.1738-2.4854-8.0338-4.7811-11.438-5.74-8.5094-15.486-14.357-26.563-14.094zm0 16h32v16h-32v64h32v16h-32c-8.864 0-16-7.136-16-16v-64c0-8.864 7.136-16 16-16zm48 0h16v16h16c8.864 0 16 7.136 16 16v64h-16v-64h-16v64h-16zm128 0h16v16h16v16h-16v48h16v16h-16c-8.864 0-16-7.136-16-16zm-48 16h16c8.864 0 16 7.136 16 16v64h-32c-2.2254 0-4.3344-0.436-6.2499-1.2501-1.9075-0.80416-3.5898-1.9999-5.0314-3.4375-2.8819-2.892-4.6867-6.8806-4.7187-11.312v-16c0-8.864 7.136-16 16-16h16v-16h-16zm0 48v16h16v-16z" fill="#73ba25" stroke-width="16"/>
  <path d="m93.188-222.91c-2.4444 0-4.3854 0.78472-5.8438 2.3125-1.4444 1.5278-2.1875 3.5764-2.1875 6.1875 0 1.3611 0.20139 2.566 0.5625 3.5938 0.375 1.0278 0.89583 1.9479 1.5625 2.7812 0.68056 0.81945 1.6632 1.691 2.9688 2.5938 1.5 1.0278 2.566 1.9653 3.2188 2.8125 0.65278 0.83333 1 1.7674 1 2.7812 0 1.0278-0.2882 1.8403-0.84375 2.4375-0.54167 0.59722-1.3542 0.875-2.4375 0.875-1.9028 0-4.0035-0.73264-6.2813-2.2188v5.5938c1.8611 1.0417 4.1285 1.5625 6.7813 1.5625 2.7083 0 4.7882-0.73611 6.2187-2.25 1.4444-1.5139 2.1562-3.7153 2.1562-6.5625 0-1.7778-0.39583-3.3611-1.1875-4.75-0.77778-1.3889-2.1701-2.7292-4.1562-4.0625-1.4722-0.97222-2.4965-1.8611-3.0938-2.625-0.58333-0.76389-0.875-1.6597-0.875-2.6875 0-1.0417 0.23264-1.8403 0.71875-2.4375 0.5-0.61111 1.2083-0.9375 2.125-0.9375 0.83333 0 1.6215 0.16319 2.3438 0.46875 0.73611 0.30556 1.4271 0.64236 2.0937 1.0312l1.875-4.5312c-2.1528-1.3056-4.3854-1.9688-6.7187-1.9688zm41.594 0c-2.4444 0-4.3854 0.78472-5.8438 2.3125-1.4444 1.5278-2.1562 3.5764-2.1562 6.1875 0 1.3611 0.17014 2.566 0.53125 3.5938 0.375 1.0278 0.89583 1.9479 1.5625 2.7812 0.68056 0.81945 1.6632 1.691 2.9688 2.5938 1.5 1.0278 2.5972 1.9653 3.25 2.8125 0.65278 0.83333 0.96875 1.7674 0.96875 2.7812 0 1.0278-0.28819 1.8403-0.84375 2.4375-0.54167 0.59722-1.3542 0.875-2.4375 0.875-1.9028 0-3.9722-0.73264-6.25-2.2188v5.5938c1.8611 1.0417 4.0972 1.5625 6.75 1.5625 2.7083 0 4.7882-0.73611 6.2188-2.25 1.4444-1.5139 2.1562-3.7153 2.1562-6.5625 0-1.7778-0.39583-3.3611-1.1875-4.75-0.77778-1.3889-2.1389-2.7292-4.125-4.0625-1.4722-0.97222-2.5278-1.8611-3.125-2.625-0.58333-0.76389-0.875-1.6597-0.875-2.6875 0-1.0417 0.26389-1.8403 0.75-2.4375 0.5-0.61111 1.2083-0.9375 2.125-0.9375 0.83333 0 1.5903 0.16319 2.3125 0.46875 0.73611 0.30556 1.4583 0.64236 2.125 1.0312l1.875-4.5312c-2.1528-1.3056-4.4167-1.9688-6.75-1.9688zm-31.094 0.4375v19.625c0 3.7083 0.79167 6.5347 2.375 8.4375 1.5833 1.8889 3.8785 2.8125 6.9062 2.8125 3.0972 0 5.4861-0.94097 7.125-2.8438 1.6389-1.9167 2.4375-4.6875 2.4375-8.3125v-19.719h-5.625v20.188c0 1.8194-0.31597 3.2014-0.96875 4.1875s-1.5868 1.5-2.7812 1.5c-2.5694 0-3.8438-1.9375-3.8438-5.8125v-20.062zm41.719 0v30.469h13.75v-4.9688h-8.0625v-8.4375h7.4688v-4.9062h-7.4688v-7.25h8.0625v-4.9062zm-134.81 6.8125c-2.8333 0-5.059 1.0625-6.6562 3.1875-1.5972 2.1111-2.4062 5.0486-2.4062 8.8125 0 2.4444 0.38889 4.6042 1.125 6.4375 0.73611 1.8194 1.7639 3.2153 3.125 4.1875 1.3611 0.97222 2.941 1.4375 4.7188 1.4375 2.8056 0 5.0139-1.0451 6.625-3.1562 1.6111-2.125 2.4062-5.1007 2.4062-8.9062 0-3.6806-0.8125-6.5972-2.4375-8.75-1.6111-2.1667-3.7639-3.25-6.5-3.25zm23.375 0c-2.1944 0-3.8785 1.1632-5.0312 3.4688h-0.25l-0.96875-3.0312h-4.2812v33.469h5.5937v-9.4688c0-0.38889-0.12153-1.5486-0.34375-3.4375h0.28125c0.66667 1.1389 1.3924 1.9479 2.1562 2.4062 0.77778 0.44444 1.6562 0.65625 2.6562 0.65625 2.1389 0 3.8264-1.0486 5.0625-3.1875 1.2361-2.1389 1.875-5.1111 1.875-8.875 0-3.8194-0.61806-6.7604-1.8125-8.8438-1.1944-2.0972-2.8264-3.1562-4.9375-3.1562zm18.438 0c-2.7083 0-4.8299 1.0972-6.3438 3.25-1.5139 2.1528-2.2812 5.1354-2.2812 8.9688 0 3.7778 0.83333 6.7118 2.5 8.7812 1.6806 2.0556 3.9722 3.0625 6.875 3.0625 2.4861 0 4.6285-0.52431 6.4062-1.5938v-4.5625c-1.8889 1.125-3.7257 1.6875-5.5312 1.6875-1.4167 0-2.5382-0.5-3.3437-1.5-0.80556-1.0139-1.2396-2.5556-1.2813-4.625h11.156v-2.9688c0-3.3194-0.72917-5.8854-2.1875-7.7188-1.4583-1.8472-3.441-2.7812-5.9688-2.7812zm22.656 0c-1.25 0-2.3507 0.32639-3.2812 0.9375-0.93056 0.59722-1.625 1.4306-2.125 2.5h-0.375l-0.65625-3h-4.4062v23.219h5.5625v-11.156c0-2.8194 0.25694-4.8194 0.8125-6 0.55556-1.1944 1.4306-1.7812 2.625-1.7812 0.90278 0 1.566 0.42014 1.9688 1.2812 0.40278 0.86111 0.59375 2.1319 0.59375 3.8125v13.844h5.5938v-15.156c0-2.7778-0.5382-4.8681-1.5938-6.3125-1.0417-1.4444-2.6076-2.1875-4.7188-2.1875zm-22.719 4.2812c0.84722 0 1.5139 0.4375 2 1.3125 0.48611 0.875 0.75347 2.1493 0.78125 3.8438h-5.625c0.08333-1.7639 0.39236-3.0417 0.90625-3.875 0.51389-0.84722 1.1458-1.2812 1.9375-1.2812zm-20.25 0.4375c1.0139 0 1.7465 0.58681 2.2187 1.7812 0.48611 1.1944 0.71875 3.0208 0.71875 5.4375 0 4.9167-0.9618 7.375-2.9062 7.375-1.125 0-1.9201-0.58333-2.4062-1.75-0.48611-1.1667-0.75-3.0382-0.75-5.5938v-0.71875c0.02778-2.3333 0.27778-4 0.75-5 0.48611-1.0139 1.2917-1.5312 2.375-1.5312zm-21.562 0.0312c1.1528 0 2.0035 0.60417 2.5312 1.8125 0.54167 1.1944 0.8125 3.0069 0.8125 5.4375 0 4.8889-1.1215 7.3438-3.3438 7.3438-1.1667 0-2.0035-0.60764-2.5312-1.8438s-0.78125-3.0833-0.78125-5.5c0-2.4306 0.25347-4.2431 0.78125-5.4375 0.52778-1.2083 1.3646-1.8125 2.5312-1.8125z"/>
 </g>
</svg>
