<svg version="1.1" viewBox="0 0 24 24" xmlns="http://www.w3.org/2000/svg">
 <path id="tumbleweed" d="m0 0v24h24v-24h-24zm11.949 6c1.8177 0 5.1004 0.18236 7.0039 1.0703l3.0469 3.623-10.043 8.7539-9.957-8.7969 2.959-3.6016c1.9035-0.88795 5.1725-1.0488 6.9902-1.0488zm0.007812 1.3418a4.3548 4.3548 0 0 0-0.080078 0.0019531 4.3547 4.3548 0 0 0-0.31641 0.019531 4.3548 4.3548 0 0 0-0.18359 0.023438 4.3547 4.3548 0 0 0-0.25586 0.041016 4.3548 4.3548 0 0 0-0.15625 0.035156 4.3547 4.3548 0 0 0-0.2793 0.072266 4.3548 4.3548 0 0 0-0.12109 0.041016 4.3547 4.3548 0 0 0-0.29688 0.11133 4.3548 4.3548 0 0 0-0.091797 0.041016 4.3547 4.3548 0 0 0-0.30859 0.15234 4.3548 4.3548 0 0 0-0.064453 0.037109 4.3547 4.3548 0 0 0-0.31055 0.19531 4.3548 4.3548 0 0 0-0.048828 0.035156 4.3547 4.3548 0 0 0-0.30273 0.23242 4.3548 4.3548 0 0 0-0.029297 0.027344 4.3547 4.3548 0 0 0-0.29883 0.2832 4.3547 4.3548 0 0 0-0.2832 0.32812c0.53116 0.14191 0.90498 0.26491 1.0176 0.30273 0.00176-0.069082 0.013672-0.6875 0.013672-0.6875s0.0022256-0.014109 0.0097656-0.021484c0.00972-0.0094899 0.023438-0.0078124 0.023438-0.0078124 0.1397 0.020236 3.122 0.46287 4.3789 1.1953 0.15522 0.090808 0.23239 0.18728 0.32812 0.28516 0.34744 0.35934 0.80616 1.854 0.85547 2.1621 0.0019 0.0121-0.013141 0.024307-0.019531 0.029297-0.0357 0.02785-0.074347 0.058104-0.11328 0.083984-0.29741 0.19954-0.98228 0.67792-1.8613 0.59961-0.78961-0.069851-1.8228-0.52237-3.0664-1.3418 0.12228 0.28629 0.24274 0.57431 0.36328 0.86133 0.1801 0.09354 1.9194 0.97824 2.7773 0.96094 0.69103-0.0144 1.4289-0.35134 1.7246-0.5293 0 0 0.065469-0.037475 0.09375-0.015625 0.030929 0.02389 0.022955 0.060267 0.015624 0.097657-0.01819 0.08487-0.05973 0.239-0.08789 0.3125l-0.023438 0.058593c-0.03385 0.09068-0.066259 0.17661-0.12891 0.22852-0.17417 0.15838-0.45307 0.28334-0.88867 0.47266-0.67331 0.29453-1.7651 0.48301-2.7793 0.47656-0.36326-0.0081-0.71527-0.047985-1.0234-0.083985-0.63243-0.0714-1.1452-0.12928-1.459 0.097657a4.3547 4.3548 0 0 0 0.0019531 0.001953 4.3547 4.3548 0 0 0 3.2754 1.4922 4.3547 4.3548 0 0 0 4.3535-4.3535 4.3547 4.3548 0 0 0-4.3535-4.3555zm0.9082 2.5254c-0.31748 0.00511-0.61795 0.12565-0.85156 0.34375-0.24907 0.23187-0.39167 0.54804-0.4043 0.88867-0.02355 0.7027 0.52642 1.2944 1.2285 1.3203 0.3424 0.01149 0.66683-0.10776 0.91602-0.3418 0.24843-0.23115 0.39299-0.54804 0.40625-0.88867 0.02413-0.70208-0.52957-1.2952-1.2324-1.3203-0.0213-6.967e-4 -0.04133-0.0022849-0.0625-0.0019531zm0.007813 0.37695c0.01479-1.87e-4 0.028059-5.52e-4 0.042969 0 0.49119 0.01743 0.87592 0.43082 0.85938 0.92188-0.0076 0.23681-0.10576 0.45634-0.2793 0.61914-0.17379 0.16204-0.4023 0.24548-0.64062 0.23828-0.49006-0.01808-0.87396-0.43069-0.85742-0.92188 0.0072-0.2377 0.10847-0.4571 0.28125-0.61914 0.16197-0.15191 0.3718-0.23551 0.59375-0.23828zm0.18945 0.44726c-0.21824 0-0.39453 0.11754-0.39453 0.26367 0 0.14474 0.17629 0.26367 0.39453 0.26367 0.21812 0 0.39648-0.11893 0.39648-0.26367 0-0.14613-0.17824-0.26367-0.39648-0.26367z" fill="#73ba25"/>
 <circle cx="41.263" cy="-41.931" r="0" fill="#fff" opacity=".3"/>
</svg>
