<svg width="24" height="24" version="1.1" viewBox="0 0 24 24" xmlns="http://www.w3.org/2000/svg">
 <path id="artwork" d="m0 2e-7v24h24v-24zm18.457 3.623c0.24846-0.020166 0.49456 0.048985 0.69922 0.23438 0.40934 0.37076 0.37614 0.95418 0.0703 1.4141-0.94652 1.4233-4.3339 6.0791-5.3105 7.418-0.17669 0.24222-0.40645 0.4109-0.66211 0.52344l-3.8906 2.2983c0.15615 0.62561 0.31891 1.852-0.14648 2.3658-1.0499 1.3502-3.3298 0.93202-4.9082 0.94922 0.67134-0.74115 1.3961-2.1484 1.9434-3.6348 0.46541-0.51379 1.6731-0.50529 2.3111-0.41155l1.9252-4.0552c0.0863-0.27044 0.23336-0.52 0.46289-0.7207 1.2051-1.0537 5.4995-5.0214 6.793-6.0762 0.214-0.17452 0.46443-0.28452 0.71289-0.30469z" fill="#73ba25"/>
</svg>
