<svg width="24" height="24" version="1.1" viewBox="0 0 24 24" xmlns="http://www.w3.org/2000/svg">
 <g id="chinese" transform="translate(-524,4)">
  <rect x="524" y="-4" width="24" height="24" fill="#73ba25"/>
  <rect x="530" y="2" width="12" height="12" ry="2" fill="#de2910"/>
  <g fill="#ffde00">
   <path d="m533 3.2 1.058 3.2562-2.7698-2.0124h3.4238l-2.7698 2.0124z" stroke-width="1.8"/>
   <path d="m536.23 2.6478-0.10019 1.1368-0.58716-0.9786 1.0502 0.44659-1.1121 0.25601z" stroke-width=".6"/>
   <path d="m537.63 3.9822-0.53351 1.0089-0.16138-1.1298 0.79464 0.81916-1.1244-0.19563z" stroke-width=".6"/>
   <path d="m537.76 5.9942-0.89865 0.70349 0.31352-1.0973 0.39135 1.0721-0.94673-0.63727z" stroke-width=".6"/>
   <path d="m536.21 6.8386-0.053 1.14-0.62724-0.95342 1.0679 0.40266-1.1006 0.30192z" stroke-width=".6"/>
  </g>
 </g>
</svg>
