<svg width="24" height="24" version="1.1" viewBox="0 0 24 24" xmlns="http://www.w3.org/2000/svg">
 <path id="enlightenment" d="m0 0v24h24v-24zm12 4c0.10395 1.0394 0.25001 1.7161 0.64258 1.9258 0.42844-0.12279 0.71225-0.7551 1.0293-1.752-0.11159 1.0235-0.10935 1.71 0.21679 2.0039 0.43549-0.050593 0.83555-0.60813 1.3398-1.5039-0.31958 0.98609-0.45637 1.6616-0.18946 2.0137 0.4396 0.051739 0.95104-0.41119 1.6367-1.1914-0.51542 0.89675-0.78941 1.528-0.60351 1.9277 0.41929 0.13654 1.0117-0.21004 1.8398-0.83008-0.7275 0.81489-1.1365 1.396-0.9707 1.834-0.26187-0.34978-0.29055-0.38083-0.4375-0.54102-0.13039-0.14212-0.21086-0.21902-0.44532-0.42969-0.26177-0.22912-0.33534-0.28977-0.49804-0.40625-0.15516-0.11107-0.25244-0.17056-0.51758-0.32422-0.32101-0.1801-0.3949-0.21877-0.58203-0.30078-0.17898-0.078472-0.27768-0.11336-0.58789-0.21484-0.3023-0.095096-0.40664-0.12606-0.59571-0.16602-0.18806-0.0397-0.30084-0.054923-0.61132-0.089844-0.38584-0.038229-0.45779-0.042969-0.66602-0.042969-0.19846 0-0.29615 0.00792-0.63477 0.041016-0.32903 0.036751-0.43083 0.051131-0.62304 0.091797-0.18928 0.039992-0.29449 0.070628-0.59766 0.16602-0.30942 0.10123-0.40909 0.13645-0.58789 0.21484-0.18212 0.079824-0.26802 0.1239-0.56641 0.29102-0.28705 0.16598-0.37336 0.21956-0.5332 0.33398-0.15564 0.11143-0.24373 0.18352-0.47656 0.38672-0.26386 0.23643-0.3306 0.29881-0.4668 0.44727-0.14695 0.1602-0.17563 0.19319-0.4375 0.54297 0.16576-0.43796-0.2432-1.021-0.9707-1.8359 0.8275 0.61953 1.4206 0.96767 1.8398 0.83203 0.18741-0.39968-0.0854-1.0298-0.60156-1.9277 0.68565 0.78017 1.1952 1.2431 1.6348 1.1914 0.26821-0.35167 0.13051-1.0264-0.18946-2.0137 0.50504 0.8971 0.90556 1.4528 1.3418 1.502 0.32511-0.2944 0.3263-0.97958 0.21484-2.002 0.31447 0.98876 0.59692 1.616 1.0195 1.7461 0.38615-0.21497 0.53159-0.88804 0.63477-1.9199zm-0.0312 2.4551c1.0798-0.015418 2.179 0.28098 3.1562 0.93945 2.5967 1.727 3.1682 5.2483 1.5234 7.7051-0.19349 0.28904-0.19342 0.29029-0.4961 0.60547l-7.3144-4.8848c0.12685-0.3413 0.12605-0.34063 0.35547-0.6875 1.1734-1.7486 3.2736-1.9147 4.7188-0.94727 1.2284 0.82236 1.8517 2.3931 1.2383 3.9824 0.23533 0.16189 0.46976 0.32249 0.70508 0.48438 0.53271-1.1332 0.65911-3.6657-1.4902-5.123-2.0417-1.3484-4.6236-0.77288-5.8711 1.1094-1.2679 1.8752-0.86264 4.5529 1.1953 5.916 1.3382 0.91045 3.0744 0.81667 4.5566 0.03516l0.6875 1.1777c-1.3752 0.7632-3.6202 1.4581-6.0137-0.12305-2.737-1.8534-3.1161-5.3518-1.5312-7.7344 1.0351-1.5368 2.7804-2.4294 4.5801-2.4551zm-4.875 9.1172c0.26187 0.34978 0.29249 0.38278 0.43945 0.54297 0.13617 0.14844 0.2011 0.21094 0.46485 0.44727 0.23283 0.2032 0.32092 0.27529 0.47656 0.38672 0.16233 0.11621 0.24359 0.16693 0.54297 0.33984 0.28443 0.15908 0.37778 0.20676 0.55664 0.28516 0.1788 0.0784 0.27846 0.1136 0.58789 0.21484 0.30316 0.09538 0.40838 0.12602 0.59766 0.16602 0.1922 0.04058 0.294 0.05503 0.62304 0.0918 0.33862 0.0331 0.43631 0.04102 0.63477 0.04102 0.20944 0 0.27786-0.0041 0.66992-0.04297 0.30763-0.03464 0.42002-0.05028 0.60742-0.08984 0.18669-0.03944 0.2975-0.07223 0.58985-0.16406 0.3185-0.10408 0.41301-0.13755 0.59375-0.2168 0.18391-0.08061 0.26785-0.12322 0.57421-0.29492 0.27654-0.16006 0.36778-0.21723 0.52539-0.33008 0.16271-0.11649 0.23628-0.17713 0.49805-0.40625 0.23446-0.21067 0.31494-0.28758 0.44531-0.42969 0.14696-0.1602 0.17562-0.19124 0.4375-0.54102-0.16576 0.43796 0.24517 1.0191 0.97266 1.834-0.82816-0.62003-1.4225-0.96662-1.8418-0.83008-0.1859 0.39977 0.0881 1.031 0.60352 1.9277-0.68468-0.77907-1.1956-1.2415-1.6348-1.1914-0.26691 0.35203-0.13012 1.0276 0.18946 2.0137-0.50424-0.89569-0.90635-1.4513-1.3418-1.502-0.32458 0.29467-0.3282 0.98013-0.2168 2.002-0.31734-0.99778-0.60018-1.63-1.0293-1.752-0.39256 0.20972-0.53864 0.88637-0.64258 1.9258-0.10319-1.0319-0.24862-1.7049-0.63477-1.9199-0.42262 0.13007-0.70505 0.75928-1.0195 1.748 0.11146-1.0224 0.11026-1.7095-0.21484-2.0039-0.43625 0.04908-0.83677 0.60486-1.3418 1.502 0.31996-0.98727 0.45766-1.662 0.18945-2.0137-0.43932-0.05072-0.94971 0.41191-1.6348 1.1914 0.51612-0.89795 0.78898-1.5281 0.60156-1.9277-0.41925-0.13563-1.0124 0.2125-1.8398 0.83203 0.72749-0.81488 1.1364-1.398 0.9707-1.8359z" fill="#73ba25"/>
</svg>
