<svg width="24" height="24" version="1.1" viewBox="0 0 24 24" xmlns="http://www.w3.org/2000/svg">
 <path id="factory" d="m0 4e-7v24h24v-24zm5 6h4l0.0273 0.32422 0.18946 2.2852 2.7832 1.3906v-2l4 2v-2l4 2v8h-16l0.34375-4.1152 0.16992-2.0566 0.34375-4.1133 0.14262-1.7148zm3.1816 1.6074-2.4297 0.81055-0.17187 2.0547 2.7637-0.92188-0.16211-1.9434zm1.8184 4.3926c-0.18111 0-0.34176 0.06034-0.48828 0.14453l2e-3 0.01758-0.0176-0.0059c-0.29097 0.1749-0.49612 0.47963-0.49612 0.84379 0 0.55228 0.44772 1 1 1 0.55228 0 1-0.44772 1-1s-0.44772-1-1-1zm4 0a1 1 0 0 0-1 1 1 1 0 0 0 1 1 1 1 0 0 0 1-1 1 1 0 0 0-1-1zm4 0a1 1 0 0 0-1 1 1 1 0 0 0 1 1 1 1 0 0 0 1-1 1 1 0 0 0-1-1zm-10 1.668-2.7617 0.91992-0.17187 2.0566 2.9336-0.97656v-2z" fill="#73ba25"/>
</svg>
