<svg version="1.1" viewBox="0 0 24 24" xmlns="http://www.w3.org/2000/svg">
 <path id="tumbleweed" d="m0 0v24h2v-6c0-1.9085 0.88517-3.5998 2.2656-4.6973 0.74429 0.84158 1.7617 1.4303 2.9199 1.623-1.3431 1.2732-2.1855 3.0689-2.1855 5.0742v4h1v-4c0-1.9085 0.88517-3.5998 2.2656-4.6973 0.91475 1.0343 2.2387 1.6973 3.7344 1.6973s2.8196-0.66294 3.7344-1.6973c1.3805 1.0974 2.2656 2.7888 2.2656 4.6973v4h1v-4c0-2.0053-0.84243-3.801-2.1855-5.0742 1.1582-0.1928 2.1756-0.78147 2.9199-1.623 1.3805 1.0974 2.2656 2.7888 2.2656 4.6973v6h2v-24h-24zm8 6c1.1005 0 2.0926 0.44189 2.8145 1.1562-2.1908 0.53194-3.8145 2.4848-3.8145 4.8438 0 0.69349 0.152 1.3455 0.41016 1.9414-1.9321-0.28547-3.4102-1.9275-3.4102-3.9414 0-2.216 1.784-4 4-4zm8 0c2.216 0 4 1.784 4 4 0 2.0139-1.478 3.6559-3.4102 3.9414 0.25815-0.5959 0.41016-1.2479 0.41016-1.9414 0-2.3589-1.6237-4.3118-3.8145-4.8438 0.72182-0.71436 1.714-1.1562 2.8145-1.1562zm-4 2c2.216 0 4 1.784 4 4s-1.784 4-4 4-4-1.784-4-4 1.784-4 4-4z" fill="#73ba25"/>
 <circle cx="41.263" cy="-41.931" r="0" fill="#fff" opacity=".3"/>
</svg>
