<svg width="24" height="24" version="1.1" viewBox="0 0 24 24" xmlns="http://www.w3.org/2000/svg">
 <path id="gaming" d="m0-1e-7v24h24v-24zm8 6.502h1a2.0002 2.0002 0 0 1 1.4141 0.58594l0.41406 0.41406h2.3438l0.41406-0.41406a2.0002 2.0002 0 0 1 1.4141-0.58594h1a2.0002 2.0002 0 0 1 1.9238 1.4512l2 7a2.0002 2.0002 0 0 1-3.5234 1.748l-2.4004-3.1992h-4l-2.4004 3.1992a2.0002 2.0002 0 0 1-3.5234-1.748l2-7a2.0002 2.0002 0 0 1 1.9238-1.4512zm0 2v1h-1v1h1v1h1v-1h1v-1h-1v-1zm7.4648 0a0.5 0.5 0 0 0-0.46484 0.5 0.5 0.5 0 0 0 0.5 0.5 0.5 0.5 0 0 0 0.5-0.5 0.5 0.5 0 0 0-0.5-0.5 0.5 0.5 0 0 0-0.0352 0zm-1 1a0.5 0.5 0 0 0-0.46484 0.5 0.5 0.5 0 0 0 0.5 0.5 0.5 0.5 0 0 0 0.5-0.5 0.5 0.5 0 0 0-0.5-0.5 0.5 0.5 0 0 0-0.0352 0zm2 0a0.5 0.5 0 0 0-0.46484 0.5 0.5 0.5 0 0 0 0.5 0.5 0.5 0.5 0 0 0 0.5-0.5 0.5 0.5 0 0 0-0.5-0.5 0.5 0.5 0 0 0-0.0352 0zm-1 1a0.5 0.5 0 0 0-0.46484 0.5 0.5 0.5 0 0 0 0.5 0.5 0.5 0.5 0 0 0 0.5-0.5 0.5 0.5 0 0 0-0.5-0.5 0.5 0.5 0 0 0-0.0352 0z" fill="#73ba25"/>
</svg>
