<svg width="24" height="24" version="1.1" viewBox="0 0 24 24" xmlns="http://www.w3.org/2000/svg">
 <g transform="translate(0,-290.65)">
  <path id="github" d="m0 290.65v24h8.8196c0.48539 0 0.67278-0.24465 0.67278-0.4893v-4.263c-2.7523 0.61162-3.3639-1.3456-3.3639-1.3456-0.42813-1.1621-1.1009-1.4679-1.1009-1.4679-0.91743-0.61162 0.06116-0.61162 0.06116-0.61162 0.97859 0.0612 1.5291 1.0398 1.5291 1.0398 0.91743 1.5291 2.3242 1.1009 2.8746 0.85627 0.06116-0.67278 0.36697-1.1009 0.61162-1.3456-2.2018-0.24465-4.526-1.1009-4.526-4.9541 0-1.1009 0.36697-1.9572 1.0398-2.6911-0.12232-0.24465-0.42814-1.2844 0.12232-2.63 0 0 0.85627-0.24465 2.7523 1.0398 0.79511-0.24465 1.6514-0.30581 2.5076-0.30581s1.7125 0.12232 2.5076 0.30581c1.896-1.2844 2.7523-1.0398 2.7523-1.0398 0.55046 1.3456 0.18349 2.3853 0.12232 2.63 0.61162 0.67278 1.0398 1.5902 1.0398 2.6911 0 3.8532-2.3242 4.6483-4.526 4.893 0.36697 0.30581 0.67278 0.91743 0.67278 1.8349v5.3639c0 0.24465 0.17958 0.4893 0.67278 0.4893h8.7584v-24z" fill="#73ba25"/>
 </g>
</svg>
