<svg width="24" height="24" version="1.1" viewBox="0 0 24 24" xmlns="http://www.w3.org/2000/svg">
 <path id="gnome" d="m0 0v24h24v-24zm17.046 4c3.3286 0-0.20984 4.7422-2.082 4.7422-1.8725 0-1.2465-4.7422 2.082-4.7422zm-5.3105 0.5918c1.8738-0.2432 0.78018 3.6215-0.2168 3.5605-0.99738-0.061-1.6563-3.3174 0.2168-3.5605zm-3.1387 1.2813c1.2321-0.1308 1.1429 2.9246 0.35156 3.0859-0.84342 0.1724-2.1208-2.3924-0.61523-3.0137 0.09408-0.039 0.18152-0.06227 0.26367-0.07227zm-2.3379 2.0078c0.9163 0.031 1.3099 2.4026 0.68945 2.6758-0.70907 0.3119-2.3185-1.7005-1.1133-2.5332 0.15072-0.10428 0.29293-0.14258 0.42383-0.14258zm6.8809 1.5391c1.5503 0.026 2.8047 0.5352 2.9727 1.5332 0.53969 3.2067-7.6474 4.3775-4.5645 6.7246 0.96843 0.7373 1.9564 0.1731 1.8066-0.9707-0.12501-0.95376 3.3545-1.5316 3.082-0.08984-0.35677 1.8911-2.2647 3.3828-3.918 3.3828-3.3607 0-6.5807-3.9078-5.9512-6.7246 0.58126-2.6031 3.9885-3.8995 6.5723-3.8555z" fill="#73ba25"/>
</svg>
