<svg width="24" height="24" version="1.1" viewBox="0 0 24 24" xmlns="http://www.w3.org/2000/svg">
 <path id="kde" d="m0-4e-7v24h24v-24zm12.824 4-0.0293 4.8145 3.5098-4.7012 2.832 0.65039-3.6523 4.7012 3.623 4.9824-2.7734 0.87891-3.5391-5.1836v4.6738l-2.6328 0.39648v-10.959l2.6621-0.25391zm-6.0332 2.668v2e-3c0.03008 0 0.06105-3.69e-4 0.08789 0.01953l1.9941 1.3086c0.24604-0.13417 0.50549-0.2479 0.77344-0.3418v1.0918c-1.4723 0.66418-2.498 2.1439-2.498 3.8633 0 2.3374 1.8952 4.2324 4.2324 4.2324 1.6451 0 3.0693-0.94019 3.7695-2.3105 0.58573 0.85722 1.0391 1.5234 1.0391 1.5234 0.01979 0.0277 0.05631 0.0398 0.08984 0.0293l0.23047-0.07227 0.71094 1.1719c0.03246 0.05342 0.02481 0.12202-0.01953 0.16602l-1.0449 1.043c-0.04545 0.0451-0.11636 0.05233-0.16992 0.01563l-1.9473-1.2754c-0.3977 0.23442-0.829 0.41588-1.2852 0.53906l-0.54492 2.2227c-0.01464 0.06073-0.06879 0.10352-0.13086 0.10352h-1.4766c-0.06369 0-0.11982-0.04717-0.13281-0.10938l-0.46094-2.2148c-0.44253-0.11962-0.86176-0.29559-1.25-0.51953l-1.9746 1.1992c-0.05357 0.0314-0.12208 0.02252-0.16602-0.02149l-1.0449-1.043c-0.04545-0.04504-0.05293-0.11612-0.01758-0.16992l1.2617-1.9219c-0.238-0.41856-0.417-0.87522-0.5332-1.3555l-2.1816-0.53125c-0.06018-0.01572-0.10156-0.07061-0.10156-0.13281v-1.4766c0-0.06393 0.04691-0.11816 0.10938-0.13086l2.2441-0.4668c0.12427-0.41478 0.29873-0.80726 0.51562-1.1719l-1.2246-2.0156c-0.03246-0.05342-0.02246-0.12212 0.02149-0.16602l1.043-1.0449c0.02256-0.0241 0.05199-0.03506 0.08203-0.03906z" fill="#73ba25"/>
</svg>
