<svg version="1.1" viewBox="0 0 24 24" xmlns="http://www.w3.org/2000/svg">
 <path id="tumbleweed" d="m0 1e-7v24h24v-24z" fill="#f1f3f5"/>
 <g transform="matrix(.021458 0 0 .021458 4.25 4)" fill-rule="evenodd">
  <path d="m84.468 580.36 228.91-113.41v58.337l-148.98 73.995" fill="#173f4f"/>
  <path d="m83.928 543 179.6-88.228 49.596 12.697-228.78 113.27" fill="#35b9ab"/>
  <path d="m50.522 597.61 34.159-17.035-0.70363-354.7-34.066-7.6924" fill="#173f4f"/>
  <path d="m379.48 650.06-294.66-69.658-34.187 17.063 328.3 78.695" fill="#35b9ab"/>
  <path d="m0 146.77v496.19l426.86 102.48 0.38754-498.11zm50.607 72.033 325.81 76.858v380.1l-325.81-78.237z" fill="#73ba25"/>
  <path d="m723.8 102.26v496.19l-296.87 147.19v-498.3zm-35.196 77.335-226.6 110.99v380.1l226.6-112.37z" fill="#173f4f"/>
  <path d="m84.453 142.14 227.93-112.79v59.078l-147.64 72.437" fill="#173f4f"/>
  <path d="m639.81 108.02-327.82-78.87 0.19425 59.25 246.96 59.178" fill="#73ba25"/>
  <path d="m297.44 0-296.69 146.94 426.34 100.24 296.81-144.7zm15.165 29.238 327.65 78.754-228.05 111.09-327.54-76.973z" fill="#35b9ab"/>
  <path d="m312.18 88.463 35.833 8.5819v353.15l-35.833 17.825 0.88388-0.0884" fill="#173f4f"/>
  <path d="m263.43 455.16v-342.87l48.728-23.756 1.0213 379.06" fill="#73ba25"/>
  <path d="m313.45 467.38v57.773l247.22 59.368 80.279-39.165" fill="#73ba25"/>
  <path d="m642.5 519.83-294.23-69.781-34.616 17.308 328.3 78.572" fill="#35b9ab"/>
  <path d="m688.8 179.36-48.076 23.127-0.24508 342.73 48.567 12.632" fill="#73ba25"/>
  <path d="m688.88 558.06-226.83 112.56v-37.946l178.55-87.296z" fill="#35b9ab"/>
 </g>
</svg>
