<svg width="24" height="24" version="1.1" viewBox="0 0 24 24" xmlns="http://www.w3.org/2000/svg">
 <path id="marketing" d="m0 0v24h24v-24zm13.939 6a1.001 1.001 0 0 1 4e-3 0c1.0662-0.03014 2.056 0.93334 2.0566 2v6a1.001 1.001 0 0 0 0 2e-3c-2e-3 0.78444-0.50964 1.5455-1.2344 1.8457-0.72473 0.30018-1.6216 0.12163-2.1777-0.43164a1.001 1.001 0 0 0-2e-3 -2e-3l-1.4141-1.4141h-1.1719v3c0 0.554-0.446 1-1 1h-1c-0.554 0-1-0.446-1-1v-3a1.001 1.001 0 0 0-2e-3 0c-0.69054-7.1e-4 -1.3316-0.41804-1.6934-1h-0.30469c-0.554 0-1-0.446-1-1v-2c0-0.554 0.446-1 1-1h0.30469c0.36173-0.58196 1.0028-0.9993 1.6934-1a1.001 1.001 0 0 0 2e-3 0h4.1719l1.4141-1.4141c0.35633-0.35658 0.84964-0.57064 1.3535-0.58594zm0.0312 1a1.001 1.001 0 0 0-0.67773 0.29297l-1.707 1.707h-4.5859a1.001 1.001 0 0 0-1 1v2a1.001 1.001 0 0 0 1 1h4.5859l1.707 1.707a1.001 1.001 0 0 0 1.707-0.70703v-6a1.001 1.001 0 0 0-1.0293-1zm3.0293 1c1.662 0 3 1.338 3 3s-1.338 3-3 3z" fill="#73ba25"/>
</svg>
