<svg version="1.1" viewBox="0 0 24 24" xmlns="http://www.w3.org/2000/svg">
 <path id="tumbleweed" d="m0 1e-7v24h24v-24z" fill="#173f4f"/>
 <path d="m6.2852 6c-0.71161 0-1.2852 0.57355-1.2852 1.2852v8.4297c0 0.71161 0.57355 1.2852 1.2852 1.2852h4.7148v2h-2.0039c-0.55194 0-0.99609 0.44412-0.99609 0.99609v0.003906h8v-0.0039c0-0.55195-0.44415-0.9961-0.99609-0.9961h-2.0039v-2h4.7148c0.71161 0 1.2852-0.57355 1.2852-1.2852v-8.4297c0-0.71161-0.57355-1.2852-1.2852-1.2852zm-0.28516 1h12v9h-12zm6 0.98386c-1.7558 0-3.2032 1.3103-3.4492 3h-1.5508c-0.27614 0-0.5 0.22386-0.5 0.5 0 0.27614 0.22386 0.5 0.5 0.5h1.5508c0.24598 1.6897 1.6934 3 3.4492 3s3.2032-1.3103 3.4492-3h1.5508c0.27614 0 0.5-0.22386 0.5-0.5 0-0.27614-0.22386-0.5-0.5-0.5h-1.5508c-0.24598-1.6897-1.6934-3-3.4492-3zm0 1c1.3866 0 2.5 1.1134 2.5 2.5s-1.1134 2.5-2.5 2.5-2.5-1.1134-2.5-2.5 1.1134-2.5 2.5-2.5zm0 1c-0.8225 0-1.5 0.6775-1.5 1.5 0 0.8225 0.6775 1.5 1.5 1.5s1.5-0.6775 1.5-1.5c0-0.8225-0.6775-1.5-1.5-1.5zm0 1c0.28206 0 0.5 0.21794 0.5 0.5s-0.21794 0.5-0.5 0.5-0.5-0.21794-0.5-0.5 0.21794-0.5 0.5-0.5z" fill="#fff" stroke-linecap="round" stroke-linejoin="round"/>
</svg>
