<svg width="24" height="24" version="1.1" viewBox="0 0 24 24" xmlns="http://www.w3.org/2000/svg">
 <path id="packaging" d="m0-2.4e-7v24h24v-24zm12 4c1.662 0 3 1.338 3 3v3h2v8c0 1.108-0.892 2-2 2h-6c-1.108 0-2-0.892-2-2v-8h2v-3c0-1.662 1.338-3 3-3zm0 1c-1.108 0-2 0.892-2 2v3h4v-3c0-1.108-0.892-2-2-2zm-2.5 6c-0.277 0-0.5 0.223-0.5 0.5s0.223 0.5 0.5 0.5 0.5-0.223 0.5-0.5-0.223-0.5-0.5-0.5zm5 0c-0.277 0-0.5 0.223-0.5 0.5s0.223 0.5 0.5 0.5 0.5-0.223 0.5-0.5-0.223-0.5-0.5-0.5z" fill="#73ba25"/>
</svg>
