<svg width="24" height="24" version="1.1" viewBox="0 0 24 24" xmlns="http://www.w3.org/2000/svg">
 <g transform="translate(0,-290.65)">
  <path d="m1.35e-4 290.65v4.0282c2.7663 0.60683 4.8992 1.29 5.3672 1.4473 0.0048-0.18964 0.03809-1.8867 0.03809-1.8867l0.02344-0.0586 0.06445-0.0176c0.38368 0.0554 8.5742 1.2698 12.026 3.2812 0.42621 0.2494 0.63657 0.51324 0.89942 0.78222 0.95427 0.98673 2.2149 5.089 2.3496 5.9355l-0.05274 0.085c-0.04924 0.0194-0.16599 0.10564-0.3252 0.21093-0.80376 0.56328-2.6864 1.8819-5.1006 1.667-2.1687-0.19184-5.0013-1.438-8.417-3.6885 0.1523 0.35599 0.86496 2.0414 0.98145 2.3262l0.04687 0.0527c0.49444 0.25708 5.2404 2.6757 7.5968 2.628 1.8978-0.0396 3.9252-0.96444 4.7373-1.4531l0.25782-0.0469c0.07341 0.0575 0.06119 0.16401 0.04101 0.26661-0.04984 0.23318-0.16293 0.65942-0.24024 0.86133l-0.06738 0.16407c-0.09315 0.249-0.17949 0.48138-0.35157 0.62403-0.47842 0.43491-1.2441 0.78065-2.4405 1.3008-1.8492 0.80893-4.8495 1.3213-7.6347 1.3037-0.99759-0.0222-1.9602-0.1326-2.8066-0.23145-2.5929-0.2927-4.468-0.5036-4.8574 1.8516-0.14028 0.83865-0.0028 1.7214 0.24609 2.5664h21.618v-24h-24zm14.651 6.9784c-0.93608-0.0297-1.8294 0.3014-2.5137 0.94043-0.68391 0.63685-1.0758 1.505-1.1103 2.4405-0.06447 1.9299 1.4498 3.5559 3.378 3.627 0.94044 0.0316 1.8322-0.30058 2.5165-0.94336 0.68234-0.63467 1.074-1.5021 1.1103-2.4375 0.06626-1.9284-1.4504-3.558-3.3808-3.627zm-0.02929 1.0312c1.349 0.0478 2.4039 1.1826 2.3584 2.5312-0.02076 0.65031-0.29406 1.252-0.7705 1.6992-0.47743 0.44499-1.1034 0.6759-1.7578 0.65625-1.3459-0.0497-2.4009-1.1822-2.3554-2.5312 0.01978-0.65287 0.29896-1.2572 0.77343-1.7022 0.47466-0.445 1.0971-0.67702 1.752-0.65332zm0.39844 1.2275c-0.59946 0-1.084 0.32232-1.084 0.72363 0 0.39754 0.48452 0.7207 1.084 0.7207 0.59907 0 1.0836-0.32316 1.084-0.7207 0-0.40131-0.48451-0.72363-1.084-0.72363z" fill="#73ba25" fill-rule="evenodd" stroke-width="1.5"/>
 </g>
</svg>
