<svg width="24" height="24" version="1.1" viewBox="0 0 24 24" xmlns="http://www.w3.org/2000/svg">
 <path id="reddit" d="m0-3.4e-7v24h24v-24zm12.898 4.2812a0.37235 0.37235 0 0 1 0.07422 0.00977l2.9434 0.58789a1.2011 1.2011 0 1 1-0.15625 0.73242l-2.5703-0.54102-0.78125 3.748a8.5521 8.5521 0 0 1 4.625 1.4785 1.7537 1.7537 0 0 1 2.9668 1.2012 1.7537 1.7537 0 0 1-0.97266 1.5977 3.4473 3.4473 0 0 1 0 0.52734c0 2.6906-3.1362 4.877-7.0039 4.877-3.8677 0-7.002-2.1864-7.002-4.877a3.4473 3.4473 0 0 1 0-0.52734 1.7537 1.7537 0 1 1 1.9336-2.8711 8.5761 8.5761 0 0 1 4.6855-1.4785l0.88867-4.168a0.37235 0.37235 0 0 1 0.36914-0.29688zm-3.6738 7.2168a1.2011 1.2011 0 0 0-1.2363 1.2012 1.2011 1.2011 0 0 0 1.2012 1.2012 1.2013 1.2013 0 0 0 0.03516-2.4023zm5.4766 0.04883a1.2011 1.2011 0 0 0 0.04883 2.4004l-0.01172 0.04883a1.2011 1.2011 0 0 0 1.2129-1.25 1.2011 1.2011 0 0 0-1.25-1.1992zm-5.4355 3.9258a0.32431 0.32431 0 0 0-0.23242 0.5293 4.6124 4.6124 0 0 0 2.9668 0.92383 4.6124 4.6124 0 0 0 2.9668-0.92383v0.04687a0.33563 0.33563 0 1 0-0.46875-0.48047 3.9397 3.9397 0 0 1-2.5098 0.73438 3.9277 3.9277 0 0 1-2.498-0.75781 0.32431 0.32431 0 0 0-0.22461-0.07227z" fill="#73ba25"/>
</svg>
