<svg width="24" height="24" version="1.1" viewBox="0 0 24 24" xmlns="http://www.w3.org/2000/svg">
 <g id="spanish" transform="translate(-428,4)">
  <rect x="428" y="-4" width="24" height="24" fill="#73ba25"/>
  <rect x="434" y="5" width="12" height="6" fill="#ffc400"/>
  <path d="m436 2c-1.108 0-2 0.892-2 2v1h12v-1c0-1.108-0.892-2-2-2z" fill="#c60a1d"/>
  <path d="m434 11v1c0 1.108 0.892 2 2 2h8c1.108 0 2-0.892 2-2v-1z" fill="#c60a1d"/>
  <rect x="435.5" y="7" width=".5" height="3" fill="#fff"/>
  <rect x="436.5" y="7" width="2" height="3" ry="1" fill="#c60a1d"/>
  <rect x="436.5" y="7" width="2" height="1" fill="#c60a1d"/>
  <rect x="439" y="7" width=".5" height="3" fill="#fff"/>
  <rect x="436.5" y="6" width="2" height=".5" ry=".25" fill="#c60a1d"/>
 </g>
</svg>
