<svg width="24" height="24" version="1.1" viewBox="0 0 24 24" xmlns="http://www.w3.org/2000/svg">
 <path id="tumbleweed" d="m0 1e-7v24h24v-24zm17.357 7.1543c2.7977 0 4.6426 1.9044 4.6426 4.6426 0 2.6191-1.7855 4.7031-4.5234 4.7031-1.6412 0-2.9034-0.68732-4.0605-1.7285l-0.46875 0.57227-0.42188-1.123-0.41992-1.1211 1.1816 0.19531 1.1816 0.19727-0.55273 0.67187c1.1941 1.0324 2.3263 1.3828 3.6191 1.3828 2.262 0 3.5723-1.6655 3.5723-3.6895 0-2.1726-1.3698-3.8691-3.8105-3.8691-0.70125 0-1.3852 0.18212-2.0039 0.50977-0.77996 0.41305-1.4411 1.0235-2.0254 1.6777-0.34832 0.38988-0.67356 0.80083-0.98242 1.2227-0.16769 0.22887-0.31234 0.46191-0.46875 0.69727l-0.25391 0.38281c-0.19337 0.29131-0.40987 0.54609-0.64062 0.80273-0.17813 0.19777-0.35837 0.39598-0.54297 0.58789-0.54693 0.56928-1.1418 1.0995-1.8242 1.502-0.76118 0.44815-1.6192 0.71289-2.5059 0.71289-2.1432 0-4.0488-1.786-4.0488-4.2266 0-2.5596 1.9048-4.2268 4.2266-4.2266 1.4165 0 2.5449 0.65055 3.4531 1.4629l0.51953-0.53516 0.32617 1.1523 0.32813 1.1543-1.1621-0.29492-1.1621-0.29297 0.47461-0.48828c-0.88771-0.76389-1.8032-1.2051-2.8379-1.2051-1.7859 0-3.2734 1.1296-3.2734 3.2129 0 2.0835 1.5471 3.4531 3.2734 3.4531 0.64381 0 1.2647-0.32117 1.7949-0.6582 0.67056-0.42643 1.2788-0.95116 1.8476-1.5039a17.905 17.905 0 0 0 0.66602-0.68359c0.23409-0.2531 0.43952-0.53308 0.64062-0.8125 0.10088-0.14013 0.20146-0.28042 0.30274-0.41992a23.119 23.119 0 0 1 0.61133-0.8125 14.581 14.581 0 0 1 0.68359-0.80078c0.59912-0.65133 1.2711-1.2479 2.043-1.6875 0.79354-0.45233 1.685-0.7168 2.6016-0.7168z" fill="#35b9ab"/>
</svg>
