<svg version="1.1" viewBox="0 0 24 24" xmlns="http://www.w3.org/2000/svg">
 <path id="tumbleweed" d="m0 1e-7v24h24v-24z" fill="#173f4f"/>
 <g stroke-width=".36718">
  <path d="m15.017 7.8217v-2.7502h-5.9296v4.9988z" fill="#2ce0e5"/>
  <path d="m9.0873 5.0715h-1.0872l-4.0001 6.9279 5.0873-1.9292z" fill="#31f9ff"/>
  <path d="m9.0873 15.199" fill="#fff"/>
  <path d="m17.125 7.022-1.1262-1.9505h-0.98148v2.7502z" fill="#299b98"/>
  <path d="m9.0873 10.07-5.0873 1.9292 5.0873 3.1989z" fill="#2ce0e5"/>
  <path d="m9.0873 15.198h5.9296v-7.3766l-5.93 2.2486z" fill="#25bbbf"/>
  <path d="m17.125 7.022-2.1076 0.79972v7.3774h3.1357l1.8473-3.1996z" fill="#0e7774"/>
  <path d="m15.017 18.928h0.98258l2.1532-3.7294h-3.1357z" fill="#299b98"/>
  <path d="m9.0881 15.199 5.9289 3.7294v-3.7294z" fill="#0e7774"/>
  <path d="m9.0873 15.199v3.7294h5.9296l-5.9289-3.7294z" fill="#299b98"/>
  <path d="m9.0873 15.198-5.0873-3.1989 4.0001 6.9291h1.0872v-3.7294z" fill="#25bbbf"/>
 </g>
</svg>
