<svg width="24" height="24" version="1.1" viewBox="0 0 24 24" xmlns="http://www.w3.org/2000/svg">
 <path id="xfce" d="m0-5e-5v9.2383c2.2154 0.41296 5.1157 0.98852 5.627 0.25586 0.42784-0.59362 0.39786-1.3228 0.93164-1.6211 0.2874-0.08042-1.0657-2.5631 0.375-3.3574 1.0272-0.51342 1.8944 2.3654 2.1582 2.6875 0.11817 0.14412 0.74412 0.17989 0.66992-0.14844-0.0804-0.35664-1.0891-3.1153 0.1543-3.5781 2.0196-0.79971 1.6565 3.5292 1.709 3.6523 0.11173 0.26207 7.0393 0.46659 7.459 3.5801 0.24276 1.7135-5.5452 3.9277-6.1113 4.3223-0.56595 0.3946-0.52342 1.0235-0.30274 1.4141 0.2537 0.42355 1.9424 1.8523 1.7168 2.5332-0.15506 0.39331-3.3049-1.0472-3.5059-0.74414-0.45829 0.57882 2.2892 2.0285 1.3398 3.0566-0.37637 0.2462-4.7023-1.8152-4.6914-1.791-0.0904 0.03435-3.7411 0.66433-7.5293 0.29297v4.207h24v-24h-24zm17.557 5.4414c2e-3 0.0011 4e-3 0.0036 6e-3 0.0059 0.18186 0.13254-0.1621 2.6959-0.36133 2.5469-0.22456-0.10916 0.23964-2.498 0.35547-2.5527zm1.709 0.32617c8e-3 0 0.0135 0.0028 0.0195 0.0078 0.0854 0.08428-1.1543 2.6022-1.3535 2.4531-0.32098-0.23768 1.0727-2.464 1.334-2.459v-2e-3zm-6.7558 2.7148c-0.33011 0-0.59766 0.3019-0.59766 0.67773 0 0.37584 0.26755 0.68359 0.59766 0.68359 0.3301 0 0.5957-0.30775 0.5957-0.68359 0-0.37583-0.2656-0.67773-0.5957-0.67773zm-1.3398 0.41016c-0.59426 0.42012 0.32209 2.7944 1.8359 1.4062-1.1894 0.03495-1.582-0.31016-1.8359-1.4062zm3.2031 2.8672c-0.65954 0.05349-2.4048 1.1295-2.373 1.2402 0.021 0.16063 3.1765-0.97719 2.5801-1.1934-0.0414-0.0399-0.11283-0.05488-0.20703-0.04687zm0.38867 0.72461c-0.48966 0.038-1.8589 1.6612-1.6699 1.7754-0.0264 0.04353 2.3188-1.1965 1.7559-1.7559-0.0241-0.0121-0.0533-0.02153-0.0859-0.01953z" fill="#73ba25"/>
</svg>
