<svg width="24" height="24" version="1.1" viewBox="0 0 24 24" xmlns="http://www.w3.org/2000/svg">
 <path d="m0 0v24h24v-24zm7.5 4c0.277 0 0.5 0.223 0.5 0.5v1.5h2v-1.5c0-0.277 0.223-0.5 0.5-0.5s0.5 0.223 0.5 0.5v1.5h2v-1.5c0-0.277 0.223-0.5 0.5-0.5s0.5 0.223 0.5 0.5v1.5h2v-1.5c0-0.277 0.223-0.5 0.5-0.5s0.5 0.223 0.5 0.5v1.5c1.108 0 2 0.892 2 2v9c0 1.108-0.892 2-2 2h-10c-1.108 0-2-0.892-2-2v-9c0-1.108 0.892-2 2-2v-1.5c0-0.277 0.223-0.5 0.5-0.5zm0 3c-0.277 0-0.5 0.223-0.5 0.5s0.223 0.5 0.5 0.5 0.5-0.223 0.5-0.5-0.223-0.5-0.5-0.5zm3 0c-0.277 0-0.5 0.223-0.5 0.5s0.223 0.5 0.5 0.5 0.5-0.223 0.5-0.5-0.223-0.5-0.5-0.5zm3 0c-0.277 0-0.5 0.223-0.5 0.5s0.223 0.5 0.5 0.5 0.5-0.223 0.5-0.5-0.223-0.5-0.5-0.5zm3 0c-0.277 0-0.5 0.223-0.5 0.5s0.223 0.5 0.5 0.5 0.5-0.223 0.5-0.5-0.223-0.5-0.5-0.5zm-7.5 2c-0.554 0-1 0.446-1 1v1h1v-1h3v2h-2v1h2v3h-3v-1h-1v1c0 0.554 0.446 1 1 1h3c0.554 0 1-0.446 1-1v-6c0-0.554-0.446-1-1-1zm6 0v8h1v-8z" fill="#3b83f3" fill-rule="evenodd"/>
</svg>
