<svg width="24" height="24" version="1.1" viewBox="0 0 24 24" xmlns="http://www.w3.org/2000/svg">
 <rect width="24" height="24" fill="#fff"/>
 <path d="m0 3e-7v24h24v-24zm6 6h10v2h2v10h-10v-2h-2zm1.707 1 1 1h6.293v-1zm-0.70703 0.70703v7.293h1v-6.293zm2 1.293v8h8v-8zm2.4434 2h1.3184c0.40625 0 0.75239 0.0703 1.0371 0.21094 0.28646 0.13889 0.50304 0.34464 0.65234 0.61718 0.14931 0.27257 0.22461 0.60352 0.22461 0.99415 0 0.42013-0.0783 0.77929-0.23633 1.0762-0.15625 0.29687-0.38498 0.52322-0.68359 0.67773-0.29861 0.15452-0.6582 0.23047-1.0801 0.23047h-1.2324zm1.0293 0.83008v2.1328h0.22851c0.31077 0 0.53972-0.089 0.68555-0.26953 0.14757-0.18056 0.2207-0.45898 0.2207-0.83398 0-0.34896-0.0681-0.60699-0.20703-0.7754-0.13715-0.1684-0.34766-0.2539-0.62891-0.2539z" fill="#f60" fill-rule="evenodd"/>
</svg>
