<svg width="24" height="24" version="1.1" viewBox="0 0 24 24" xmlns="http://www.w3.org/2000/svg">
 <path d="m0-3e-7v24h24v-24zm9.6055 5.9316v0.39844c-1.3395 0.38713-2.576 0.87745-3.1914 1.9941 1.6486-1.171 3.5913-1.5957 5.5859-1.5957s3.9373 0.42472 5.5859 1.5957c-0.61536-1.1167-1.8519-1.607-3.1914-1.9941v-0.39844c1.3683 0.13864 2.6039 0.47648 3.5898 1.1953 1.3518 2.8894 2.1596 5.7034 1.9941 8.3789-1.1727 0.90275-2.6092 1.5889-4.3887 1.9941l-0.79687-0.79883c1.2276-0.45032 2.2363-1.1869 3.1914-1.9941-2.1368 0.82194-4.1892 1.6035-5.9844 1.5957-1.7952 8e-3 -3.8476-0.77376-5.9844-1.5957 0.95514 0.80725 1.9638 1.5438 3.1914 1.9941l-0.79687 0.79883c-1.7795-0.4052-3.216-1.0914-4.3887-1.9941-0.16541-2.6755 0.64229-5.4895 1.9941-8.3789 0.986-0.71883 2.2215-1.0567 3.5898-1.1953zm-0.19922 4.7871a1.3963 1.3963 0 0 0-1.3965 1.3965 1.3963 1.3963 0 0 0 1.3965 1.3945 1.3963 1.3963 0 0 0 1.3965-1.3945 1.3963 1.3963 0 0 0-1.3965-1.3965zm5.1875 0a1.3963 1.3963 0 0 0-1.3965 1.3965 1.3963 1.3963 0 0 0 1.3965 1.3945 1.3963 1.3963 0 0 0 1.3965-1.3945 1.3963 1.3963 0 0 0-1.3965-1.3965z" fill="#7289da" fill-rule="evenodd"/>
</svg>
