<svg width="24" height="24" version="1.1" viewBox="0 0 24 24" xmlns="http://www.w3.org/2000/svg">
 <rect width="24" height="24" fill="#fff"/>
 <path d="m0 0v24h24v-24h-24zm12 4v16l-4-4h-2c-1.108 0-2-0.892-2-2v-4c0-1.108 0.892-2 2-2h2l4-4zm1 0.068359c3.9557 0.49006 7 3.8391 7 7.9316 0 4.0925-3.0443 7.4416-7 7.9316v-1.0098c3.3994-0.48382 6-3.3847 6-6.9219s-2.6006-6.4381-6-6.9219v-1.0098zm0 3.0312c2.2874 0.46099 4 2.4732 4 4.9004 0 2.4272-1.7126 4.4394-4 4.9004v-1.0391c1.7263-0.44369 3-1.9928 3-3.8613s-1.2737-3.4176-3-3.8613v-1.0391zm0 3.1758c0.5958 0.34556 1 0.98354 1 1.7246s-0.4042 1.379-1 1.7246v-1.7246-1.7246z" fill="#feca5f" fill-rule="evenodd"/>
</svg>
