<svg width="24" height="24" version="1.1" viewBox="0 0 24 24" xmlns="http://www.w3.org/2000/svg">
 <rect width="24" height="24" fill="#fff"/>
 <path d="m0-2.5e-7v24h24v-24zm12 3c2.216 0 4 1.784 4 4h-1c0-1.662-1.338-3-3-3s-3 1.338-3 3h-1c0-2.216 1.784-4 4-4zm-0.0937 2h0.1875c1.0564 0 1.9062 0.84989 1.9062 1.9062v0.1875c0 0.57667-0.25814 1.0865-0.66016 1.4355l4.5703 10.057a1.0001 1.0001 0 0 1-0.91021 1.4141h-10a1.0001 1.0001 0 0 1-0.91016-1.4141l4.5703-10.057c-0.40202-0.34908-0.66016-0.85888-0.66016-1.4355v-0.1875c0-1.0564 0.84989-1.9062 1.9062-1.9062zm-0.3457 3.9648-0.92388 2.0352h2.7266l-0.92383-2.0352c-0.11253 0.020541-0.22706 0.035156-0.3457 0.035156h-0.1875c-0.11864 0-0.23317-0.01461-0.3457-0.03516zm-1.379 3.0352-1.3633 3h6.3633l-1.3633-3zm-1.8184 4-1.3633 3h10l-1.3633-3z" fill="#217844" fill-rule="evenodd"/>
</svg>
