<svg width="24" height="24" version="1.1" viewBox="0 0 24 24" xmlns="http://www.w3.org/2000/svg">
 <rect width="24" height="24" fill="#fff"/>
 <path d="m0 0v24h24v-24h-24zm12 4a7.6864 7.6864 0 0 1 5.3516 2.084l-2.2832 2.2832a4.3432 4.3432 0 0 0-3.0684-1.1992c-2.0866 0-3.8589 1.4053-4.4922 3.3008a4.7932 4.7932 0 0 0 0 3.0625c0.63331 1.8955 2.4056 3.3027 4.4922 3.3027 1.0811 0 2.0049-0.27897 2.7227-0.76562a3.7032 3.7032 0 0 0 1.5977-2.4316h-4.3203v-3.0801h7.543a9.5319 9.5319 0 0 1 0.13867 1.625c0 2.4344-0.87091 4.4945-2.3809 5.8867-1.3255 1.2222-3.142 1.9316-5.3008 1.9316a7.9997 7.9997 0 0 1-7.1484-4.4082 7.9997 7.9997 0 0 1 0-7.1836 7.9997 7.9997 0 0 1 7.1484-4.4082z" fill="#3b83f3"/>
</svg>
