<svg width="24" height="24" version="1.1" viewBox="0 0 24 24" xmlns="http://www.w3.org/2000/svg">
 <rect width="24" height="24" fill="#fff"/>
 <path d="m0 5e-7v24h24v-24zm11.99 4s1.0798 0.5015 1.4551 1.7031c0.0293 3e-3 0.0566 7e-3 0.0859 0.0117 0.16699 0.0258 0.33232 0.0578 0.49414 0.0957 0.16183 0.0396 0.32162 0.0846 0.47656 0.13281 0.15494 0.0482 0.3068 0.10376 0.45313 0.16406 0.0345 0.0137 0.0672 0.0292 0.10156 0.043 0.20314-0.14805 0.75056-0.46941 1.6113-0.41601 0-1e-5 0.49896 0.77472 0.27344 1.6699 0.1515 0.14805 0.29057 0.29795 0.41797 0.45117 0.32708 0.38907 0.58086 0.7921 0.77539 1.1777 0.19109 0.38906 0.32261 0.76266 0.41211 1.1035 0.0895 0.34259 0.13605 0.65331 0.16015 0.92187h-2e-3c0.0189 0.21691 0.0229 0.40598 0.0332 0.57813-2e-3 0.0637-0.0515 0.11805-0.11523 0.12305-0.062 5e-3 -0.11927-0.0355-0.13477-0.0957-0.0379-0.1515-0.0872-0.32453-0.1543-0.51562-0.0396-0.11879-0.0894-0.2444-0.14453-0.37696-0.0137-0.0328-0.0275-0.0672-0.043-0.10156-0.0138-0.0327-0.0314-0.0672-0.0469-0.10156-0.0155-0.0344-0.0316-0.0672-0.0488-0.10156-9e-3 -0.019-0.0183-0.0375-0.0273-0.0547-9e-3 -0.019-0.0183-0.0355-0.0273-0.0527-0.14633-0.28234-0.32986-0.58281-0.56054-0.87891-0.11363-0.14806-0.24119-0.29312-0.37891-0.43945-0.0327-0.0362-0.0693-0.0732-0.10547-0.10938-0.0362-0.0361-0.0715-0.0711-0.10937-0.10547-0.0378-0.0344-0.0756-0.0711-0.11524-0.10547-0.0189-0.0172-0.0397-0.0355-0.0586-0.0527-0.0207-0.0172-0.0399-0.0336-0.0606-0.0508-0.32364-0.272-0.69667-0.52342-1.1133-0.72657-0.41661-0.20658-0.87632-0.36387-1.3652-0.45507-0.24446-0.0465-0.4974-0.0737-0.75391-0.084-0.12911-3e-3 -0.25761-3e-3 -0.38672 0-0.0327 2e-3 -0.065 4e-3 -0.0977 6e-3l-0.0234 2e-3h-0.0157l-0.0566 2e-3c-0.0396 2e-3 -0.0773 6e-3 -0.11523 8e-3l-0.0273 2e-3 -0.0254 2e-3 -0.0469 4e-3c-0.0241 2e-3 -0.0482 6e-3 -0.0723 8e-3 -0.031 4e-3 -0.0842 0.0107-0.11523 0.0137-0.0379 7e-3 -0.0754 9e-3 -0.11328 0.0156-0.0345 5e-3 -0.0672 0.0106-0.10157 0.0156l-0.0488 8e-3 -0.0508 8e-3c-0.0345 7e-3 -0.0672 0.0125-0.10156 0.0195-0.0328 7e-3 -0.0669 0.0125-0.0996 0.0195-0.0328 7e-3 -0.0669 0.0144-0.0996 0.0234-0.0654 0.0155-0.13381 0.0299-0.19922 0.0488-0.0327 0.0103-0.065 0.017-0.0977 0.0273-0.0327 0.0104-0.065 0.019-0.0977 0.0293-0.12912 0.0413-0.25886 0.0853-0.38281 0.13867-0.031 0.0121-0.0608 0.0253-0.0918 0.0391s-0.0627 0.0272-0.0937 0.041c-0.0602 0.0292-0.12118 0.0571-0.17968 0.0898-0.12051 0.062-0.23771 0.13107-0.34961 0.20507-0.11363 0.074-0.22506 0.15388-0.33008 0.23828-0.10673 0.0844-0.20854 0.17509-0.30664 0.27149-0.39424 0.38218-0.72109 0.85983-0.97071 1.4004-0.12567 0.27028-0.23005 0.55523-0.31445 0.84961-0.0413 0.14633-0.0784 0.29577-0.10937 0.44726-0.0309 0.1515-0.0573 0.30555-0.0762 0.45704-0.0207 0.1515-0.0341 0.30311-0.0391 0.45117 0 0.0379-2e-3 0.0733-2e-3 0.10937v0.047l2e-3 0.0684v0.0644l2e-3 0.0488v0.0371l2e-3 0.0137 4e-3 0.0566c0.0189 0.29955 0.0692 0.59578 0.14844 0.88672 0.0809 0.28922 0.18844 0.57347 0.32617 0.84375 0.13772 0.27029 0.30501 0.52632 0.4961 0.76562 0.38046 0.48031 0.86615 0.87702 1.4102 1.168 0.27201 0.1446 0.55936 0.26156 0.85547 0.34766 0.2961 0.0861 0.60029 0.13971 0.91016 0.16211 0.0775 7e-3 0.15492 0.0117 0.23242 0.0137h0.1915l0.0273-2e-3c0.14461-5e-3 0.29071-0.0189 0.43359-0.043 0.28406-0.0465 0.56279-0.13513 0.82618-0.25391 0.5268-0.24102 0.98898-0.62135 1.3281-1.0879 0.16871-0.23413 0.31101-0.48706 0.41602-0.7539 0.0534-0.13256 0.0965-0.27049 0.13086-0.40821 0.0172-0.0689 0.0331-0.13838 0.0469-0.20898 0.012-0.0706 0.0242-0.14034 0.0332-0.21094 9e-3 -0.0723 0.0165-0.14254 0.0215-0.21484 2e-3 -0.0327 2e-3 -0.0845 4e-3 -0.11719l2e-3 -0.0488v-0.043c2e-3 -0.0121 0-0.0297 0-0.0469s5e-5 -0.0316-2e-3 -0.0488l-2e-3 -0.0508-2e-3 -0.0488c-5e-3 -0.0654-0.0131-0.13187-0.0234-0.19727-0.0413-0.25996-0.12341-0.51196-0.24219-0.74609-0.23413-0.46998-0.61904-0.8578-1.0684-1.1074-0.22552-0.12395-0.46499-0.21639-0.71289-0.27149-0.12395-0.0293-0.25127-0.0463-0.37695-0.0566l-0.0469-2e-3h-0.0177l-0.0293-2e-3 -0.0488-2e-3h-0.0391c-0.0585 0-0.11728 8.6e-4 -0.17578 6e-3 -0.11534 0.0104-0.2299 0.0312-0.3418 0.0606-0.1119 0.0293-0.22116 0.069-0.32617 0.11719-0.1033 0.0482-0.20218 0.10452-0.29687 0.16992-0.0947 0.0637-0.18303 0.1393-0.26563 0.2168-0.32881 0.31332-0.54123 0.72493-0.61523 1.1484-9e-3 0.0534-0.0165 0.10676-0.0215 0.16016-1e-3 0.0138-2e-3 0.0272-4e-3 0.041l-2e-3 0.0195v0.016c-1e-3 0.0275 5e-5 0.0526-2e-3 0.0801-4e-3 0.0981 2e-3 0.20048 0.0176 0.29688 0.031 0.19453 0.0965 0.37793 0.18945 0.54492 0.093 0.16699 0.21166 0.31528 0.34766 0.4375 0.136 0.12223 0.28888 0.22237 0.44726 0.29297 0.15666 0.0723 0.31865 0.11822 0.48047 0.14062 0.0207 2e-3 0.0399 6e-3 0.0606 8e-3 9e-3 1e-3 0.019 2e-3 0.0293 4e-3l0.0156 2e-3h0.01c0.0223 1e-3 0.044-4e-5 0.0664 2e-3 0.0173 2e-3 0.0375 2e-3 0.0547 2e-3s0.0358-2e-3 0.0547-2e-3c0.0172 0 0.0358 4e-5 0.0547-2e-3 0.0379-4e-3 0.0733-9e-3 0.10938-0.0137 0.0723-0.0137 0.14188-0.0321 0.20898-0.0527 0.0671-0.0224 0.12916-0.0488 0.18946-0.0781 0.0172-9e-3 0.0336-0.0183 0.0508-0.0273 0.0689-0.0379 0.15713-0.021 0.20703 0.041 0.0586 0.0706 0.0469 0.17562-0.0254 0.23242-0.0189 0.0155-0.0377 0.0292-0.0566 0.043-0.0671 0.0465-0.13955 0.0915-0.21875 0.13282-0.0792 0.0396-0.16441 0.0742-0.25391 0.10351-0.0447 0.0155-0.0885 0.0307-0.13672 0.041-0.0241 7e-3 -0.0482 9e-3 -0.0723 0.0137-0.0258 5e-3 -0.0486 0.0126-0.0762 0.0156-0.0138 2e-3 -0.0253 2e-3 -0.0391 4e-3l-0.0215 4e-3c-7e-3 0-0.0126 2e-3 -0.0176 2e-3 -0.0224 2e-3 -0.044 4e-3 -0.0664 6e-3 -0.0138 0-0.0272 2e-3 -0.041 2e-3 -0.0137 0-0.0272 2e-3 -0.041 2e-3 -0.0258 2e-3 -0.0523 2e-3 -0.0781 2e-3 -0.20658 0-0.42417-0.0264-0.64453-0.0918-0.22035-0.0637-0.44404-0.1657-0.65235-0.30859-0.2083-0.14289-0.40285-0.32456-0.5664-0.54492-0.16526-0.22036-0.29826-0.4818-0.38086-0.76758-0.0414-0.14461-0.0685-0.29233-0.084-0.44727-4e-3 -0.0362-7e-3 -0.0733-0.01-0.10937l-2e-3 -0.0625c-2e-3 -0.0189-2e-3 -0.0377-2e-3 -0.0566-2e-3 -0.074-1e-3 -0.15087 4e-3 -0.22657 0.0189-0.30644 0.0843-0.62302 0.20312-0.92773 0.11879-0.30472 0.29159-0.59839 0.51367-0.86523 0.22208-0.26512 0.49528-0.50182 0.8086-0.68946 0.31504-0.18765 0.67182-0.32198 1.0488-0.39258 0.093-0.0189 0.18875-0.034 0.28515-0.043 0.0241-4e-3 0.0523-4e-3 0.0781-6e-3l0.0684-6e-3 0.0293-2e-3h0.043l0.0703-2e-3c0.18765-2e-3 0.37899 9e-3 0.56836 0.0332 0.38046 0.0482 0.76176 0.15287 1.125 0.31641 0.36325 0.16355 0.70966 0.38253 1.0195 0.65625 0.30814 0.272 0.58237 0.59597 0.80273 0.96094 0.22035 0.36497 0.38838 0.77056 0.48828 1.1992 0.0241 0.10846 0.047 0.21771 0.0625 0.32617l0.0117 0.082 0.01 0.082c4e-3 0.0275 8e-3 0.0564 0.01 0.084 4e-3 0.0276 4e-3 0.0549 6e-3 0.0859l6e-3 0.0898 2e-3 0.0664v0.166c0 0.10674-3e-3 0.21358-0.01 0.32031-4e-3 0.0603-9e-3 0.11949-0.0137 0.17969 7e-3 5e-3 0.0145 0.0107 0.0215 0.0137 0 0 3e-3 5e-3 0.01 0.01 7e-3 6e-3 0.0117 8e-3 0.0117 8e-3 0.11706 0.093 0.68342 0.57699 0.8418 1.5703 0 0-0.67126 0.64494-1.625 0.58984-0.0223 0.0361-0.044 0.073-0.0664 0.10743-0.24445 0.37357-0.53953 0.72067-0.87695 1.0254-0.15838 0.14288-0.32658 0.27644-0.5039 0.40039 0 0.0155 2e-3 0.0272 2e-3 0.041v0.0391c0 0.19109-0.0488 1.0707-0.89063 1.959 0 0-1.1843-0.13508-1.8574-1.0957l-2e-3 -2e-3 -0.1406 4e-3 -0.0371 2e-3h-0.0547c-0.11362 0-0.22599-8.6e-4 -0.33789-6e-3 -0.44932-0.0207-0.8989-0.0856-1.3379-0.19922-0.14632-0.0379-0.28876-0.0807-0.43164-0.1289-0.19626 0.15666-1.1356 0.83465-2.5645 0.78125 0 0-0.53466-1.1155-0.0664-2.4531-0.11189-0.11707-0.22092-0.23956-0.32421-0.36523-0.24618-0.30127-0.46712-0.6257-0.65821-0.96484 0 1e-3 5e-5 2e-3 -2e-3 4e-3 0 0-1.497-0.0913-2.7812-1.5684 0 0 0.45681-1.5592 1.9941-2.3184 7e-3 -0.062 0.0125-0.12339 0.0215-0.18359 0.0568-0.42694 0.14754-0.83911 0.27149-1.2402 0.0345-0.11189 0.0717-0.22185 0.11133-0.33203-0.15839-0.20142-0.95655-1.3164-0.82227-3.0879 0 0 1.4778-0.76415 3.1426-0.1289 0 0 0.0169 9e-3 0.041 0.0195 0.16355-0.11362 0.33152-0.22001 0.50195-0.31641 0.1756-0.0981 0.35635-0.18617 0.53711-0.26367 0.0912-0.0396 0.18224-0.0732 0.27344-0.10937 0.093-0.0327 0.18239-0.0662 0.27539-0.0938 0.0671-0.0206 0.13211-0.0397 0.19922-0.0586 7e-3 -0.0396 0.0117-0.0644 0.0117-0.0644s0.23001-1.0674 1.4316-1.8301z" fill="#fbc90b" fill-rule="evenodd"/>
</svg>
