<svg width="24" height="24" version="1.1" viewBox="0 0 24 24" xmlns="http://www.w3.org/2000/svg">
 <rect width="24" height="24" fill="#fff"/>
 <path d="m0 0v9.9414c0.091501-0.11228 0.16702-0.21967 0.26562-0.33398 1.0249-1.1883 2.4739-2.4144 4.2344-3.377v-2.2305-4h-4.5zm6.4648 0c2.1404 0.86601 3.7844 2.0932 4.623 3.8477 0.59621-0.22131 1.2387-0.34766 1.9121-0.34766 2.1955 0 4.0847 1.289 4.9668 3.1484a0.5006 0.5006 0 0 1 0.40234 0.087891c1.808 1.3366 3.1309 3.4067 3.1309 6.2637 0 2.7-1.6469 4.6225-3.6172 5.8047-1.9703 1.1822-4.2717 1.6953-5.8828 1.6953-0.33987 0-0.67219-0.030559-1-0.074219v0.074219c-0.19113 0-0.37127-0.017328-0.55859-0.023438-0.93454 1.4688-2.1945 2.7279-3.9844 3.5234h17.543v-24h-17.535zm-0.96484 0.78125v3.2188 1.7949c1.2369-0.42699 2.5015-0.82075 3.7695-0.82812 0.28119-0.26022 0.58898-0.49007 0.91992-0.6875-0.76691-1.5828-2.4375-2.6818-4.6895-3.498zm2.8594 5.2734c-0.90458 0.14629-1.8688 0.45739-2.8594 0.80078v6.1445c0 3.6096 2.8904 6.5 6.5 6.5 1.3889 0 3.5875-0.48685 5.3672-1.5547 0.92357-0.55414 1.7267-1.249 2.291-2.1074-0.41688-0.10154-0.75933-0.26382-1.0117-0.50391-0.3968-0.37746-0.5259-0.89899-0.50195-1.3594l0.99805 0.050782c-0.01375 0.26439 0.03518 0.43351 0.19336 0.58398 0.12551 0.1194 0.37265 0.24175 0.79687 0.30469 0.22854-0.57637 0.36719-1.2075 0.36719-1.9141 0-2.1974-0.83088-3.7701-2.084-4.9238 0.05094 0.30085 0.083984 0.60844 0.083984 0.92383v1c0 3.0384-2.4616 5.5-5.5 5.5-3.0384 0-5.5-2.4616-5.5-5.5v-1c0-1.0846 0.31774-2.0934 0.85938-2.9453zm-3.8594 1.332c-1.4277 0.85423-2.6261 1.8848-3.4785 2.873-0.4432 0.51383-0.77186 1.0141-1.0215 1.4609v2.5781c0.069416 0.11451 0.13536 0.228 0.2207 0.34766 0.49861 0.69906 1.2544 1.4785 2.2422 2.1992 1.3371 0.97557 3.1048 1.8359 5.2383 2.2969-1.9344-1.3556-3.2012-3.5978-3.2012-6.1426v-5.6133zm11.5 1.6133c-0.554 0-1 0.446-1 1s0.446 1 1 1 1-0.446 1-1-0.446-1-1-1zm-16 6.9629v8.0371h4.5v-4.8418c-0.98959-0.43842-1.8714-0.95262-2.627-1.5039-0.74597-0.54427-1.3671-1.1203-1.873-1.6914zm5.5 3.5918v3.6445c1.6549-0.60993 2.8682-1.5559 3.7812-2.7949-1.3803-0.14-2.6438-0.43989-3.7812-0.84961z" fill="#32cbf1"/>
</svg>
