<svg width="24" height="24" version="1.1" viewBox="0 0 24 24" xmlns="http://www.w3.org/2000/svg">
 <rect width="24" height="24" fill="#fff"/>
 <path d="m0-2e-7v24h24v-24zm13.531 4c0.21018-5.6e-4 0.25234 9e-3 0.38477 0.082 0.28733 0.1583 0.4608 0.4343 0.69726 1.1113 0.17488 0.50068 0.2244 0.73492 0.22461 1.0742 2.7e-4 0.37154-0.0661 0.64645-0.23828 0.99024l-0.12891 0.25391 0.0645 0.25195 0.0644 0.25195 0.1543 0.0449c0.3016 0.0871 0.58194 0.25882 0.83789 0.51172 0.20891 0.2064 0.25758 0.27513 0.38086 0.5293 0.16484 0.33983 0.24197 0.63197 0.28515 1.0977 0.0302 0.32595 0.0241 0.50217-0.0332 1.1543-0.14564 1.6584-0.75394 2.9726-1.7031 3.6816-0.25889 0.19338-0.5074 0.31611-0.73632 0.36328-0.16517 0.034-0.19831 0.0523-0.31055 0.17579-0.4655 0.51214-1.1903 0.95809-1.8809 1.1582-0.93985 0.27236-1.8578 0.2092-2.6777-0.18555l-0.23438-0.11328-0.082 0.0937c-0.11264 0.13128-0.28067 0.49507-0.36133 0.77734-0.0538 0.18826-0.33672 1.4272-0.58008 2.5488-0.0174 0.0803-0.0379 0.14656-0.0469 0.14649-9e-3 -4e-5 -0.0701-0.10242-0.13477-0.22852-0.0647-0.12609-0.26981-0.51138-0.45508-0.85547-0.71377-1.3256-0.81087-1.5799-0.95898-2.5156-0.0601-0.37949-0.0849-1.415-0.041-1.7148 0.1109-0.75846 0.35745-1.295 0.79493-1.7363 0.19418-0.19588 0.29715-0.27418 0.45898-0.35352 0.23989-0.11763 0.47969-0.1713 0.68555-0.15039 0.079 8e-3 0.14852 9e-3 0.15625 2e-3 8e-3 -8e-3 -2e-3 -0.0732-0.0234-0.14453-0.12224-0.41365-0.1589-1.0399-0.084-1.4316 0.14003-0.7319 0.61063-1.3287 1.3359-1.6934 0.20334-0.10225 0.62727-0.25419 0.80274-0.28711l0.10156-0.0176v-0.18555c1e-5 -0.4055 0.17692-1.2102 0.32617-1.4844 0.24222-0.44505 0.66366-0.77123 1.2774-0.98828 0.41509-0.14681 0.71153-0.37312 0.76171-0.58008 0.0144-0.0593 0.0364-0.31408 0.0488-0.56641 0.0204-0.41432 0.0308-0.4721 0.0957-0.59765 0.0859-0.16623 0.23912-0.31817 0.41015-0.40625 0.10152-0.0523 0.16954-0.0639 0.36133-0.0644zm0.0703 1.1758c-0.0164 0.39215-0.065 0.74213-0.17383 0.97656-0.11969 0.25797-0.396 0.50104-0.6875 0.68164-0.14154 0.0877-0.37943 0.20102-0.57031 0.27344-0.33365 0.12659-0.52027 0.23425-0.64062 0.37109-0.12036 0.13685-0.19532 0.32381-0.26368 0.65235-0.0763 0.36674-0.0847 0.78074-0.0273 1.0586 0.0128 0.0619 0.0231 0.12019 0.0293 0.16797 3e-3 0.0239 7e-3 0.0436 8e-3 0.0664 4.7e-4 0.0114-2.1e-4 0.0241-2e-3 0.043-8.7e-4 9e-3 -3e-3 0.0205-8e-3 0.0391-3e-3 9e-3 -0.0115 0.0347-0.0117 0.0352-2.1e-4 4.3e-4 -0.0388 0.0544-0.0391 0.0547a0.20025 0.20025 0 0 1-2e-3 0c-1.2e-4 1.3e-4 -0.0291 0.0252-0.0293 0.0254-2.1e-4 1.4e-4 -0.0147 9e-3 -0.0195 0.0117-0.01 5e-3 -0.0145 8e-3 -0.0195 0.01-0.0102 4e-3 -0.0173 6e-3 -0.0234 8e-3 -0.0123 4e-3 -0.0222 6e-3 -0.0351 0.01-0.0258 7e-3 -0.059 0.0148-0.0977 0.0234-0.0773 0.0173-0.18011 0.0391-0.29101 0.0605-0.61471 0.1189-0.91785 0.23847-1.2383 0.47461-0.2473 0.18224-0.41475 0.42022-0.50781 0.73242-0.0532 0.17855-0.051 0.71858 0.0273 1.0195 0.16219 0.62337 0.46846 1.0861 0.75195 1.2461 0.0714 0.0403 0.12356 0.0544 0.18555 0.13672 0.031 0.0412 0.0512 0.10539 0.0527 0.15039 2e-3 0.045-5e-3 0.0721-0.01 0.0957-0.0195 0.0977-0.0465 0.19209-0.0781 0.27539s-0.0585 0.15141-0.125 0.22265c-0.0258 0.0277-0.0689 0.0722-0.14063 0.0937-0.0717 0.0215-0.14552 7e-3 -0.19921-0.0117-0.10739-0.0382-0.2006-0.10037-0.38086-0.21484-0.40113-0.25471-0.63248-0.39635-0.78516-0.4707-0.15268-0.0743-0.21653-0.0868-0.35547-0.0996-0.11165-0.0103-0.0814-0.0165-0.18359 0.0352-0.20865 0.10579-0.49475 0.4556-0.61914 0.8125-0.12995 0.37283-0.1523 0.54191-0.15039 1.1016 2e-3 0.70451 0.0726 1.2178 0.23632 1.7402 0.0237 0.0755 0.0638 0.16525 0.0996 0.25391 0.10048-0.39794 0.23415-0.83508 0.37891-1.0918 0.16292-0.28894 0.45184-0.59118 0.75-0.79687l0.16992-0.11719a0.20025 0.20025 0 0 1 0.24219 0.0117l0.0918 0.0781a0.20025 0.20025 0 0 1 2e-3 0c0.24155 0.20793 0.58753 0.38257 0.93164 0.4668 0.27192 0.0665 0.90094 0.0752 1.1992 0.0117 0.25808-0.0549 0.61675-0.18061 0.82617-0.28516 0.44445-0.22188 0.91278-0.62659 1.1445-0.98047 0.0716-0.10932 0.13584-0.20549 0.14649-0.2207 1.2e-4 -1.9e-4 0.0857-0.0722 0.0859-0.0723 2.4e-4 -1e-4 0.0661-0.0175 0.0664-0.0176 3.5e-4 -3e-5 0.0386 2e-3 0.0391 2e-3 4.6e-4 5e-5 0.0172 2e-3 0.0234 4e-3 0.0251 6e-3 0.0351 0.0113 0.0449 0.0156 0.0197 9e-3 0.033 0.0164 0.0488 0.0254 0.0317 0.0181 0.0686 0.0406 0.10742 0.0664 0.0213 0.0141 0.038 0.0242 0.0566 0.0351 0.0325-0.0154 0.0742-0.0375 0.1211-0.0644 0.0998-0.0573 0.21576-0.13188 0.2832-0.18555 0.5912-0.47043 1.0414-1.3958 1.2168-2.6074 0.0577-0.39899 0.0643-0.51525 0.0644-1.0273 5e-5 -0.41111-0.0102-0.54593-0.0449-0.68946-0.16041-0.66448-0.5598-0.98632-1.209-0.98632h-0.23047a0.20025 0.20025 0 0 1-0.19726-0.23438l0.0215-0.13086c0.0444-0.25968-0.0277-0.65595-0.17773-0.92578l-0.0664-0.11914a0.20025 0.20025 0 0 1 0.0234-0.22852l0.13477-0.15625c0.24062-0.28197 0.36514-0.67048 0.33007-0.98046-0.0116-0.10237-0.0898-0.38834-0.17968-0.64453-0.0402-0.11471-0.0816-0.22246-0.1211-0.31641z" fill="#1d76bc" fill-rule="evenodd"/>
</svg>
