<svg width="24" height="24" version="1.1" viewBox="0 0 24 24" xmlns="http://www.w3.org/2000/svg">
 <rect width="24" height="24" fill="#fff"/>
 <path d="m0 3e-7v24h24v-24zm5 5h2l1 1h-2v12h2l-1 1h-2zm12 0h2v14h-2l-1-1h2v-12h-2zm-8.5 3.5h1v0.27539c0.295-0.1711 0.63307-0.27539 1-0.27539 0.60149 0 1.134 0.26796 1.5 0.68555 0.36603-0.41759 0.89851-0.68555 1.5-0.68555 1.108 0 2 0.892 2 2v5h-1v-5c0-0.554-0.446-1-1-1s-1 0.446-1 1v5h-1v-5c0-0.554-0.446-1-1-1s-1 0.446-1 1v5h-1z" fill-rule="evenodd"/>
</svg>
