<svg width="24" height="24" version="1.1" viewBox="0 0 24 24" xmlns="http://www.w3.org/2000/svg">
 <path d="m0-3e-7v24h24v-24zm10.156 5.0117c0.81304 0 1.4707 0.65766 1.4707 1.4707v1.4688h-1.4707c-0.81305 0-1.4707-0.6557-1.4707-1.4688s0.65765-1.4707 1.4707-1.4707zm3.6875 0c0.81305 0 1.4707 0.65766 1.4707 1.4707v3.6855c0 0.81305-0.65765 1.4707-1.4707 1.4707-0.81304 0-1.4707-0.65765-1.4707-1.4707v-3.6855c0-0.81305 0.65766-1.4707 1.4707-1.4707zm-7.373 3.6856h3.6856c0.81304 0 1.4707 0.65765 1.4707 1.4707s-0.65766 1.4707-1.4707 1.4707h-3.6856c-0.81305 0-1.4707-0.65765-1.4707-1.4707s0.65765-1.4707 1.4707-1.4707zm11.047 0c0.81305 0 1.4707 0.65765 1.4707 1.4707s-0.65765 1.4707-1.4707 1.4707h-1.4688v-1.4707c0-0.81305 0.6557-1.4707 1.4688-1.4707zm-11.035 3.6875h1.4688v1.4688c0 0.81304-0.6557 1.4707-1.4688 1.4707s-1.4707-0.65766-1.4707-1.4707c0-0.81305 0.65765-1.4688 1.4707-1.4688zm3.6738 0c0.81304 0 1.4707 0.6557 1.4707 1.4688v3.6758c0 0.81304-0.65766 1.4707-1.4707 1.4707-0.81305 0-1.4707-0.65766-1.4707-1.4707v-3.6758c0-0.81305 0.65765-1.4688 1.4707-1.4688zm3.6875 0h3.6856c0.81305 0 1.4707 0.6557 1.4707 1.4688 0 0.81304-0.65765 1.4707-1.4707 1.4707h-3.6856c-0.81304 0-1.4707-0.65766-1.4707-1.4707 0-0.81305 0.65766-1.4688 1.4707-1.4688zm-1.4707 3.6738h1.4707c0.81305 0 1.4707 0.65766 1.4707 1.4707 0 0.81304-0.65765 1.4707-1.4707 1.4707-0.81304 0-1.4707-0.65766-1.4707-1.4707z" fill="#611f69" fill-rule="evenodd"/>
</svg>
