<svg width="24" height="24" version="1.1" viewBox="0 0 24 24" xmlns="http://www.w3.org/2000/svg">
 <path d="m0 5e-7v24h24v-24zm10.174 6.3457c3.4906-9e-3 7.2874 0.70923 10.07 2.3613 0.53449 0.31653 0.70926 1.0045 0.39258 1.5371-0.31524 0.53334-1.0055 0.70926-1.5371 0.39258h-2e-3c-3.8675-2.2972-10.249-2.5074-13.941-1.3867-0.59295 0.17983-1.2188-0.1551-1.3984-0.74805-0.17969-0.59324 0.15467-1.2201 0.74805-1.4004 1.5896-0.48254 3.5736-0.75046 5.668-0.75586zm0.21289 4.1367c2.9768 0.0649 5.9622 0.84884 8.2773 2.2715 0.43991 0.27083 0.57943 0.84581 0.3086 1.2852-0.27083 0.4402-0.84719 0.57943-1.2871 0.3086-3.2256-1.9826-8.1418-2.5566-11.957-1.3984-0.4948 0.14946-1.0178-0.12911-1.168-0.62305-0.14903-0.4948 0.1291-1.0175 0.62304-1.168 1.6343-0.49587 3.4171-0.71471 5.2031-0.67578zm0.0762 3.9121c2.5427 0.0467 4.816 0.67466 6.793 1.8828 0.3525 0.21638 0.46442 0.67679 0.24805 1.0293-0.21494 0.3525-0.67679 0.46442-1.0293 0.24805-2.8175-1.721-6.364-2.1106-10.541-1.1562-0.40251 0.0917-0.80477-0.1618-0.89648-0.56446-0.0921-0.40266 0.15898-0.80282 0.5625-0.89453 1.7142-0.39162 3.3376-0.57292 4.8633-0.54492z" fill="#1ed760" fill-rule="evenodd"/>
</svg>
