<svg width="24" height="24" version="1.1" viewBox="0 0 24 24" xmlns="http://www.w3.org/2000/svg">
 <rect width="24" height="24" fill="#fff"/>
 <path d="m0-2e-7v24h24v-24zm17.189 7.0137c0.29913 0.02601 0.58523 0.19947 0.53321 0.78906-0.0347 0.48555-0.31239 2.1853-0.58985 4.0234l-0.86719 5.4453s-0.0686 0.79877-0.6582 0.9375-1.561-0.48628-1.7344-0.625c-0.13873-0.10405-2.6022-1.6647-3.5039-2.4277-0.24277-0.20809-0.51977-0.62382 0.0352-1.1094 1.2486-1.1445 2.7408-2.567 3.6426-3.4688 0.41619-0.41619 0.83175-1.3882-0.90235-0.20898l-4.8906 3.2949s-0.55525 0.34728-1.5957 0.03516c-1.0405-0.31214-2.2539-0.72852-2.2539-0.72852s-0.83213-0.5193 0.58984-1.0742l8.0801-3.3301c0.79769-0.34682 3.5039-1.457 3.5039-1.457s0.3122-0.12171 0.61133-0.0957z" fill="#1e96c8"/>
</svg>
