<svg width="24" height="24" version="1.1" viewBox="0 0 24 24" xmlns="http://www.w3.org/2000/svg">
 <rect width="24" height="24" fill="#fff"/>
 <path d="m0 0v24h24v-24h-24zm10.5 6c2.2638 0 4.1082 1.6611 4.4316 3.832 0.53784-0.51303 1.263-0.83203 2.0684-0.83203 0.64939 0 1.2464 0.20859 1.7363 0.55664l-4.0938 4.0938c-0.19558-0.093092-0.41079-0.15039-0.64258-0.15039s-0.447 0.057299-0.64258 0.15039l-2.5078-2.5078c0.093092-0.19558 0.15039-0.41079 0.15039-0.64258 0-0.831-0.669-1.5-1.5-1.5s-1.5 0.669-1.5 1.5c0 0.23178 0.057299 0.447 0.15039 0.64258l-5.3008 5.3008c-0.52474-0.6766-0.84961-1.517-0.84961-2.4434 0-2.216 1.784-4 4-4h0.050781c0.25053-2.2524 2.1278-4 4.4492-4zm8.9434 4.2637c0.34806 0.48997 0.55664 1.0869 0.55664 1.7363v0.17578c1.1637 0.40329 2 1.4945 2 2.7988v0.050782c0 1.6479-1.3267 2.9746-2.9746 2.9746h-8.5254-0.5-0.025391-3.9746c-0.92635 0-1.7668-0.32487-2.4434-0.84961l5.3008-5.3008c0.19558 0.093092 0.41079 0.15039 0.64258 0.15039s0.447-0.057299 0.64258-0.15039l2.5078 2.5078c-0.093092 0.19558-0.15039 0.41079-0.15039 0.64258 0 0.831 0.669 1.5 1.5 1.5s1.5-0.669 1.5-1.5c0-0.23178-0.057299-0.447-0.15039-0.64258l4.0938-4.0938z" fill="#3bb3e4"/>
</svg>
