<svg class="travis-logo" width="24" height="24" version="1.1" viewBox="0 0 24 24" xmlns="http://www.w3.org/2000/svg">
 <rect width="24" height="24" fill="#fff" fill-rule="evenodd"/>
 <path d="m0 0v24h24v-24h-24zm12.592 4.125c1.3749 1e-7 2.6977 0.45159 3.8164 1.3008 1.0464 0.7943 1.8266 1.9238 2.3086 3.1855 0.13507 0.051735 0.27068 0.10402 0.40625 0.16797a0.29475 0.29475 0 0 0 0.001953 0.0019531c0.20286 0.097385 0.41166 0.21296 0.61133 0.36914l0.033203 0.023438a0.29475 0.29475 0 0 1 0.10547 0.1582l0.011719 0.042969-0.001953-0.0019531c0.03324 0.12263 0.059561 0.24851 0.076172 0.375v0.0039062c0.01632 0.11782 0.027403 0.2385 0.033203 0.35937 0.023718 0.48127-0.028438 0.96308-0.1543 1.4277-0.049262 0.1794-0.1118 0.35896-0.19141 0.53125a0.29475 0.29475 0 0 0 0 0.001954c-0.017621 0.03711-0.036212 0.069243-0.050782 0.095703a0.29475 0.29475 0 0 1-0.005859 0.009765l-0.017578 0.027344-0.00586 0.009766c-0.00723 0.01321-0.015246 0.029001-0.029297 0.050781l-0.001953 0.003906-0.021484 0.03125a0.29475 0.29475 0 0 1-0.12109 0.10938l-0.027343 0.011719-0.007813 0.005859c-0.034371 0.01758-0.070309 0.034402-0.10547 0.050782a0.29475 0.29475 0 0 0-0.001953 0.001953l-0.099609 0.044922a0.29475 0.29475 0 0 1-0.007813 0.001953c-0.06429 0.02732-0.12874 0.055211-0.19726 0.082031l-0.035157 0.12891c0.07117 0.040771 0.14057 0.075716 0.20508 0.12891 0.139 0.11476 0.22339 0.29159 0.25 0.46094 0.02658 0.16934 0.015093 0.34074-0.003907 0.55078-0.021621 0.239-0.091389 0.6431-0.19141 1.0312-0.085078 0.32908-0.14675 0.52175-0.22852 0.66992-0.036646 0.066398-0.09899 0.081476-0.15625 0.12891a0.29475 0.29475 0 0 1 0.12695 0.40234l-0.22266 0.41797a0.29475 0.29475 0 0 1-0.001953 0.003906c-0.00504 0.009073-0.48077 0.90324-0.76953 1.4824-0.34763 0.69566-1.0286 0.86035-1.3555 0.93555h-0.003906c-0.044605 0.01073-0.087034 0.02215-0.12109 0.03125-0.24802 0.069776-0.71134 0.17787-1.125 0.27734h-0.001953c-0.25576 0.15393-0.52504 0.29692-0.82812 0.41211-1.1626 0.44053-2.3918 0.42273-3.5059 0.033203-0.1708 0.02168-0.37366 0.045975-0.6543 0.078125a0.29475 0.29475 0 0 0-0.001953 0c-0.14481 0.01618-0.28395 0.023438-0.41602 0.023438-1.1216 0-1.7755-0.6063-2.1914-1.1406-0.43866-0.56399-0.96143-1.3797-0.97852-1.4062l-0.30078-0.46875a0.29475 0.29475 0 0 1 0.36719-0.42969l0.50781 0.22852c0.10532 0.047341 0.29896 0.13664 0.49805 0.22852-0.13558-0.25855-0.28883-0.50843-0.38867-0.7832-0.1525 0.02791-0.30391 0.064307-0.45898 0.066406-0.083275 0.001341-0.16949-0.003934-0.25586-0.021484a0.29475 0.29475 0 0 1-0.0078125-0.001953c-0.12215-0.027909-0.27204-0.13601-0.36719-0.28711-0.095145-0.1511-0.17566-0.35426-0.26758-0.67774-0.10687-0.3765-0.1852-0.76719-0.21094-1.002-0.00841-0.075453-0.0012994-0.13171-0.0058594-0.19922-0.1531 0.11911-0.60325 0.41922-0.59961 0.41602l-0.75781 0.66602a0.29475 0.29475 0 0 1-0.44336-0.38086l0.54102-0.85156c0.32411-0.50782 0.73363-0.95042 1.1562-1.3789a0.29475 0.29475 0 0 1-0.074219-0.082031l-0.019531-0.029297c-0.015292-0.02295-0.026965-0.043096-0.037109-0.060546a0.29475 0.29475 0 0 1-0.0039062-0.007813l-0.021484-0.037109a0.29475 0.29475 0 0 1-0.0019531-0.003907c-0.046199-0.087038-0.087325-0.177-0.12305-0.26953-0.043856-0.11286-0.085355-0.23027-0.11914-0.35156a0.29475 0.29475 0 0 0 0-0.001954c-0.063748-0.23316-0.10725-0.46888-0.13281-0.70703-0.047606-0.42031-0.033201-0.84707 0.042969-1.2637a0.29475 0.29475 0 0 1 0-0.0039063c0.011581-0.057216 0.024848-0.12094 0.044922-0.19336a0.29475 0.29475 0 0 1 0.0019531-0.0078126l0.013672-0.042969a0.29475 0.29475 0 0 1 0.095703-0.14258l0.029297-0.023438a0.29475 0.29475 0 0 1 0.0039062-0.0019531c0.2015-0.15821 0.4138-0.27346 0.61719-0.37109a0.29475 0.29475 0 0 0 0.0019531-0.0019531c0.13396-0.062891 0.26944-0.11598 0.4043-0.16797 0.48226-1.262 1.2622-2.3913 2.3086-3.1855 1.1186-0.8488 2.4434-1.3008 3.8184-1.3008zm0 0.29492c-1.3105 0-2.5707 0.43036-3.6406 1.2422-1.0349 0.78561-1.8213 1.9124-2.2793 3.1836-0.16398 0.060484-0.32672 0.12624-0.48633 0.20117-0.19388 0.093075-0.38575 0.19716-0.5625 0.33594l-0.029297 0.025391-0.013672 0.042969c-0.017137 0.061825-0.027637 0.11347-0.039062 0.16992-0.070929 0.38794-0.083447 0.78587-0.039062 1.1777 0.023975 0.22416 0.063591 0.4466 0.12305 0.66406 0.030518 0.10956 0.068183 0.21626 0.10938 0.32226 0.031491 0.081746 0.068304 0.16286 0.10938 0.24024l0.021484 0.037109c0.0084 0.01445 0.014575 0.025762 0.027344 0.044922l0.023438 0.035156 0.035156 0.017578c0.034003 0.01754 0.068834 0.034632 0.10352 0.050782l0.099609 0.044921 0.054688 0.023438c-0.52734 0.48489-0.98958 1.0368-1.375 1.6406l-0.54102 0.85156 0.75977-0.66602c0.013105-0.011425 0.64756-0.56061 1.707-1.1836l0.015625 0.12109c-0.068884 0.035951-0.40316 0.21031-0.50195 0.29297-0.16398 0.13642-0.17293 0.34965-0.12891 0.74414 0.022177 0.20228 0.099022 0.59325 0.20117 0.95312 0.17607 0.61962 0.30473 0.72999 0.41797 0.75586 0.063051 0.01283 0.12708 0.018579 0.19141 0.017579 0.2137-0.0027 0.42695-0.032414 0.63281-0.089844 0.18966 0.59383 0.46745 1.1548 0.82422 1.666-0.016334 0.005151-0.032351 0.011026-0.048828 0.015626-0.20665-0.095762-0.92893-0.43181-1.1719-0.54102l-0.50781-0.22656 0.30078 0.46875c0.021841 0.033938 0.53947 0.84236 0.96289 1.3867 0.3955 0.50806 0.93681 1.0254 1.959 1.0254 0.12265 0 0.25238-0.006675 0.38477-0.021485 0.30511-0.03495 0.53459-0.061474 0.70898-0.083984 1.0726 0.39418 2.2563 0.41759 3.3789-0.007812 0.30679-0.1166 0.5867-0.25903 0.84375-0.41797 0.00501-7e-4 0.010625-0.002606 0.015625-0.003907 0.41767-0.10047 0.88918-0.21344 1.123-0.2793 0.037634-0.01008 0.083753-0.021444 0.13281-0.033204 0.32594-0.074934 0.87179-0.20027 1.1621-0.78125 0.29234-0.58636 0.77039-1.485 0.77539-1.4941l0.22266-0.41602-0.43359 0.1875c-0.023187 0.010413-0.57309 0.24985-0.85938 0.40039-0.01042 0.00535-0.025359 0.009925-0.037109 0.015625 0.15917-0.3211 0.29193-0.65604 0.39258-1 0.15994 0.03867 0.39753 0.035156 0.57226 0.035156 0.078114-7e-4 0.15663-0.01232 0.23242-0.03125 0.11324-0.0289 0.19991-0.10274 0.36524-0.74219 0.095763-0.37164 0.16477-0.77638 0.18359-0.98438 0.036625-0.4049 0.025022-0.62105-0.14062-0.75781-0.082324-0.067874-0.32233-0.19754-0.44531-0.26172l0.003906-0.044922c0.0625 0.01476 0.098863 0.022764 0.10156 0.023438l0.10938-0.42383c0.03931-0.0168 0.081866-0.032301 0.12891-0.050781 0.067538-0.02621 0.13397-0.053472 0.20117-0.082032l0.099609-0.044921c0.034679-0.016151 0.069506-0.033252 0.10352-0.050782l0.035156-0.017578 0.023438-0.035156c0.00954-0.01452 0.01699-0.029702 0.02539-0.044922l0.023438-0.037109c0.01434-0.02605 0.028255-0.053189 0.041015-0.080079 0.072027-0.15588 0.13031-0.31683 0.17578-0.48242 0.11785-0.43508 0.16672-0.88572 0.14453-1.3359-0.0054-0.11223-0.017753-0.227-0.033203-0.33789-0.01485-0.11428-0.034313-0.22666-0.064453-0.33789l-0.013672-0.042969-0.029297-0.025391c-0.17675-0.13878-0.36862-0.24286-0.5625-0.33594-0.16028-0.0756-0.32397-0.14069-0.48828-0.20117-0.45766-1.2708-1.2444-2.398-2.2793-3.1836-1.0699-0.81216-2.3282-1.2422-3.6387-1.2422zm0 0.28906c2.4365 0 4.6665 1.5914 5.5996 4.0312-0.13071-0.041326-0.2618-0.080956-0.39453-0.11523-0.20396-0.052423-0.40953-0.10049-0.61719-0.13477 0.099125 0.035951 0.19714 0.071406 0.29492 0.10938 0.098118 0.036624 0.19781 0.073965 0.29492 0.11328 0.19396 0.076968 0.38303 0.1601 0.57227 0.24805 0.18836 0.084559 0.3738 0.17823 0.55273 0.28125 0.16204 0.091138 0.31533 0.19837 0.45898 0.31641 0.00635 0.036394 0.011125 0.072707 0.015625 0.10938 0.00645 0.051517 0.013178 0.10257 0.017578 0.1543 0.02389 0.31264 0.015059 0.62657-0.025391 0.9375-0.028226 0.20766-0.066597 0.4124-0.12305 0.61133-0.02722 0.099462-0.059403 0.20016-0.095703 0.29492-0.02728 0.070245-0.056334 0.13953-0.089844 0.20703l-0.013672 0.023437c-0.015459 0.00809-0.031755 0.017991-0.046874 0.025391l-0.091797 0.042969c-0.03259 0.01546-0.068293 0.030132-0.10156 0.044922l0.16406-0.625c-0.038301-0.010414-0.39573-0.10612-1.0137-0.2207 0.14838-0.032391 0.29432-0.075029 0.43555-0.13086 0.060814-0.02563 0.11812-0.053847 0.17578-0.085937 0.058392-0.031072 0.11272-0.071111 0.1582-0.11914-0.61928 0.20231-1.901 0.10945-3.0391-0.007813-1.0396-0.10719-2.0828-0.17533-3.1309-0.17773-1.048 0.002312-2.0905 0.070546-3.1309 0.17773-1.1378 0.11724-2.4159 0.21011-3.0352 0.007813 0.045416 0.048102 0.099751 0.088161 0.1582 0.11914 0.057123 0.0326 0.11725 0.060067 0.17773 0.085937 0.16602 0.066467 0.33792 0.11733 0.51367 0.15039-0.56351 0.10753-0.89144 0.19109-0.92773 0.20117l0.17188 0.6543c-0.00269 0.0027-0.0060656 0.007066-0.0097656 0.009766-0.059139-0.02654-0.12989-0.060124-0.18164-0.083984l-0.09375-0.042969c-0.01512-0.00742-0.031418-0.017291-0.046875-0.025391l-0.011719-0.023437c-0.03403-0.0672-0.065501-0.13648-0.091797-0.20703-0.036626-0.09476-0.067813-0.19512-0.095703-0.29492-0.10951-0.40339-0.16448-0.82029-0.16211-1.2383 0.001011-0.1045 0.0046019-0.20672 0.013672-0.31055 0.004036-0.052086 0.011528-0.10289 0.017578-0.1543 0.00471-0.036645 0.009395-0.072957 0.015625-0.10938 0.14346-0.11796 0.29524-0.22519 0.45703-0.31641 0.17708-0.10316 0.36389-0.19489 0.55273-0.28125 0.18851-0.088711 0.38034-0.16975 0.57422-0.24805 0.19477-0.078394 0.39219-0.15186 0.58984-0.22266-0.20768 0.035768-0.41334 0.081319-0.61719 0.13477-0.13273 0.034612-0.26544 0.072289-0.39648 0.11328 0.93313-2.4395 3.1647-4.0293 5.6016-4.0293zm-1.8477 0.81445c-2e-4 3.4e-4 -0.003719 0.0092148-0.003907 0.0097656 0.0018-0.0032 0.00406-0.0065756 0.00586-0.0097656h-0.001953zm-0.003907 0.0097656c-0.62367 1.0925-0.64688 2.4082-0.63281 2.8672-0.05913-0.055111-0.094703-0.09241-0.095703-0.09375l-0.00586-0.0039062-0.001953-0.0019532c-0.0011-0.0013471-0.002506-9.898e-4 -0.003906-0.0019531l-0.013672-0.0097656c-0.00268-9.6e-4 -0.0031694-0.0025562-0.0058593-0.0039063-0.0060501-0.0023099-0.011868-0.0025562-0.017578-0.0039062l-0.0039062-0.0019531c-0.007542-0.0016361-0.015728-0.002242-0.023438-0.0019531h-0.0058594c-0.005953 1.5e-4 -0.009785 7.331e-4 -0.015625 0.0019531l-0.0039063 0.0019531-1.3984 0.39648c-0.011088-0.28495-0.016799-1.5104 0.625-2.543-0.022513 0.025537-0.74033 0.84622-0.78906 2.5898l-0.22461 0.064453c-0.03858 0.010981-0.067479 0.042487-0.074219 0.082031-0.1371 0.83131-0.058388 1.413-0.054688 1.4375l0.0019532 0.013672-0.052734 0.015625c-0.2127 0.06956-0.42788 0.14296-0.62109 0.25586 0.1036-0.03923 0.21044-0.070693 0.31836-0.095703 0.10786-0.02688 0.21764-0.049813 0.32617-0.070313 0.21741-0.040658 0.43488-0.075012 0.6543-0.10156 0.21904-0.02909 0.43803-0.053666 0.6582-0.072266 0.22009-0.01848 0.43973-0.038011 0.66016-0.050781 0.88239-0.05208 1.7673-0.068022 2.6523-0.068359 0.88508 9.6e-4 1.7703 0.014259 2.6523 0.068359 0.22076 0.01276 0.44006 0.032291 0.66016 0.050781 0.22014 0.01873 0.43912 0.043756 0.6582 0.072266 0.21939 0.026908 0.43716 0.060232 0.6543 0.10156 0.1082 0.02083 0.21703 0.043103 0.32422 0.070313 0.10793 0.02496 0.21478 0.056423 0.31836 0.095703-0.19355-0.11324-0.40678-0.18631-0.61914-0.25586-0.01797-0.00597-0.036367-0.010725-0.054687-0.015625 0.0014-0.00477 0.003232-0.008672 0.003906-0.013672 0.00338-0.024527 0.082402-0.60619-0.054687-1.4375-0.00675-0.039544-0.037592-0.071049-0.076172-0.082031l-0.22266-0.064453c-0.048388-1.7436-0.76884-2.5646-0.79102-2.5898 0.64179 1.0323 0.63609 2.2577 0.625 2.543l-1.3965-0.39648-0.003907-0.0019531c-0.00587-9.618e-4 -0.011678-0.0015677-0.017578-0.0019531h-0.005859c-0.00771-3.701e-4 -0.015838 2.231e-4 -0.023438 0.0019531-1e-3 0-0.002606 0.0019531-0.003906 0.0019531-0.00626 0.00144-0.009725 0.0033594-0.015625 0.0058594-0.0023 0.00135-0.005812 0.0012788-0.007813 0.0019531l-0.013671 0.0078125-0.003907 0.0039062-0.001953 0.0019532c-9e-4 0.00135-0.004559 0.0025562-0.005859 0.0039062-9.7e-4 0.001349-0.036903 0.038649-0.095703 0.09375 0.014112-0.46035-0.008403-1.7825-0.63672-2.877 0.013439 0.038306 0.51189 1.4977 0.33984 3.1328-0.05645 0.044688-0.11476 0.090259-0.17188 0.12891-0.02771 0.019112-0.04418 0.048392-0.044922 0.082031 0 0.0056836-0.012019 0.52749-0.24219 0.9707-0.0033 0.00694-0.006012 0.013984-0.007812 0.021484-0.57224-0.03965-1.1458-0.056304-1.7188-0.056641-0.57362-9.4e-4 -1.1483 0.018961-1.7207 0.056641-0.0018-0.00694-0.004813-0.014884-0.007813-0.021484-0.23014-0.44344-0.24185-0.96532-0.24219-0.9707-6.3e-4 -0.033676-0.017132-0.062997-0.044922-0.082031-0.057124-0.038306-0.1161-0.084216-0.17188-0.12891-0.1702-1.6208 0.31463-3.0606 0.33594-3.123zm0.24609 0.34766v1.3145h0.92969v-0.38477h0.20898v1.7715h-0.31641v0.99023h1.627v-0.99023h-0.31641v-1.7715h0.20898v0.38477h0.92969v-1.3145h-3.2715zm-1.1621 2.6387c-0.013441 0.26781-0.019409 0.8505 0.13281 1.4043 0.00181 0.00656 0.0028594 0.011478 0.0058594 0.017578l-0.044922 0.0058594c-0.22177 0.02688-0.44492 0.054836-0.66602 0.091796-0.22088 0.036458-0.43944 0.079414-0.6582 0.12695-0.13273 0.03058-0.2651 0.062036-0.39648 0.097656-0.010752-0.093412-0.06126-0.60272 0.044922-1.2949l1.582-0.44922zm5.5352 0 1.582 0.44922c0.10652 0.69287 0.055672 1.2038 0.044922 1.2969-0.13071-0.03562-0.26248-0.069029-0.39453-0.099609-0.4377-0.095078-0.88108-0.16867-1.3262-0.21875-0.01513-0.0023-0.031095-0.0041594-0.046875-0.0058594 0.0033-0.0063599 0.005812-0.010778 0.007812-0.017578 0.15188-0.55376 0.14692-1.1365 0.13281-1.4043zm-5.3301 0.087891c0.12345 0.11334 0.25289 0.22012 0.38867 0.31836 0.008766 0.14617 0.04889 0.56011 0.23438 0.94922-0.16566 0.0131-0.33077 0.029395-0.49609 0.046875 0.0046-0.01742 0.0046-0.035324 0-0.052734-0.12974-0.47312-0.13605-0.98181-0.12695-1.2617zm5.127 0c0.00944 0.27957 0.001111 0.78793-0.12891 1.2617-0.0048 0.01762-0.0048 0.035114 0 0.052734-0.16532-0.01748-0.33044-0.033435-0.49609-0.046875 0.18582-0.38945 0.22568-0.80305 0.23438-0.94922 0.14281-0.10148 0.28646-0.2236 0.39062-0.31836zm-1.9609 3.5742c-0.12836 0.10383-0.2635 0.20048-0.4043 0.28516l-0.4707 0.28125c-0.29469 0.035948-0.55 0.11123-0.56445 0.11523a0.10753 0.10753 0 0 0-0.074218 0.072266l-0.47656 1.5742-2.5586 0.57031-0.80469-0.56445-0.23438-1.8984a26.199 26.199 0 0 1 1.8047-0.26367c-0.078629 0.094423-0.15593 0.19304-0.22852 0.29688l-0.4375 0.62891 0.63672-0.42578c0.0094115-0.006744 0.41449-0.27306 1.0781-0.59766a29.025 29.025 0 0 1 2.7344-0.074218zm1.6641 0.078125c1.165 0.089385 2.117 0.23328 2.7676 0.35156l-0.23047 1.6152-0.81055 0.56836-2.5566-0.29102-0.47461-1.5684a0.10853 0.10853 0 0 0-0.074219-0.072266 3.9351 3.9351 0 0 0-0.66797-0.12305l0.0625-0.003906c0.053088-0.003661 0.9323-0.114 1.9844-0.47656zm0.12305 0.41602c-0.33064 0.011762-0.54354 0.44273-0.52539 0.96289 0.018149 0.51949 0.29631 0.51533 0.62695 0.50391 0.44455-0.00838 0.68738-0.14464 0.91016-0.037109-0.003372-0.012437-0.071116-0.22022-0.37891-0.18359 0.03561-0.077287 0.050483-0.18303 0.039063-0.32617-0.040662-0.51881-0.34123-0.93168-0.67188-0.91992zm-4.8203 0.12891c-0.33098 0.002697-0.65263 0.42972-0.63281 0.94922 0.005376 0.13542 0.024719 0.23216 0.056641 0.30274-0.28864 0.072248-0.36868 0.25063-0.37305 0.26172 0.18179-0.09811 0.38775-0.084658 0.70898-0.083984 0.03461 9.63e-4 0.070123 6.88e-4 0.10742 0h0.097656c0.33098-0.003371 0.60656 0.027636 0.60156-0.49219-0.00501-0.51982-0.23543-0.9409-0.56641-0.9375zm8.2715 0.14258c0.15558 0.083336 0.33476 0.18234 0.38281 0.22266 0.041339 0.034274 0.14692 0.19727 0.10156 0.60352-0.055775 0.50168-0.30923 1.4469-0.44531 1.584-0.16431 0.0289-0.60282 0.038738-0.78125-0.013672 0.01815-0.057799 0.035935-0.25175 0.052735-0.31055l0.39062-0.3418a0.11492 0.11492 0 0 0 0.046875-0.082031l0.25195-1.6621zm-3.4844 0.05664a0.16902 0.16902 0 0 1 0.17188 0.16602 0.16902 0.16902 0 0 1-0.16602 0.17383 0.16902 0.16902 0 0 1-0.17188-0.16602 0.16902 0.16902 0 0 1 0.16602-0.17383zm-4.7539 0.12891a0.16902 0.16902 0 0 1 0.013672 0 0.16902 0.16902 0 0 1 0.17383 0.16406 0.16902 0.16902 0 0 1-0.16602 0.17188 0.16902 0.16902 0 0 1-0.17383-0.16211 0.16902 0.16902 0 0 1 0.15234-0.17383zm-3.3848 0.2168v0.001953l0.19531 1.5742c0.003699 0.03024 0.021675 0.058692 0.046875 0.076172l0.39648 0.27734c0.015457 0.0541 0.032363 0.10868 0.048828 0.16211-0.16499 0.04838-0.5008 0.09491-0.65234 0.06836-0.031548-0.031722-0.070748-0.10968-0.11133-0.2168-0.009754-0.02572-0.0213-0.06498-0.03125-0.09375-0.07274-0.21046-0.14827-0.48407-0.20312-0.74609-0.031186-0.14895-0.053553-0.29041-0.066406-0.40625-0.010545-0.094259-0.017011-0.16942-0.019531-0.23047-0.00255-0.060839-0.0014769-0.10706 0.0019531-0.14258 0.003477-0.03624 0.0099181-0.060175 0.017578-0.078125 0.0073689-0.01772 0.014077-0.027256 0.023437-0.035156v-0.001953c0.044354-0.0373 0.21004-0.13204 0.35352-0.20898zm5.8066 0.2168c0.061825 0 0.13609 0.004515 0.21875 0.015625l0.49023 1.6191a0.10652 0.10652 0 0 0 0.089844 0.074219l0.23047 0.027343 3.1406 0.35742a0.10853 0.10853 0 0 0 0.072266-0.019531l0.31445-0.22266 0.29102-0.20312 0.10938-0.076172c-0.01782 0.074936-0.038434 0.15102-0.058594 0.22461a7.7211 7.7211 0 0 1-0.52344 1.2832c-0.043688 0.0029-0.089272 0.003907-0.13867 0.003907-0.15188 0-0.30681-0.013497-0.47852-0.029297-0.29805-0.02723-0.77039-0.080516-0.91992-0.097656a249.54 249.54 0 0 0-0.93555-0.74219l-0.039062-0.03125c-0.064513-0.054441-0.13859-0.11719-0.28711-0.11719-0.13508 0-0.33212 0.049203-0.80859 0.19336 0.24765-0.18515 0.24805-0.42188 0.24805-0.42188v-0.001953s-0.35171 0.32714-0.91992 0.40039-1.0156-0.27734-1.0156-0.27734c0.018813 0.060823 0.045129 0.19947 0.17383 0.31641-0.15155-0.01814-0.31462-0.03125-0.48633-0.03125-0.061825 0-0.12311 0.002759-0.18359 0.005859-0.3498 0.018149-0.84335 0.54715-1.1895 1.0801-0.16969 0.053762-0.70216 0.22089-1.3164 0.40234-0.57325-0.79435-0.8523-1.6055-0.88086-1.6895-0.011424-0.03226-0.024403-0.064386-0.035156-0.097656l0.14648 0.10352 0.36523 0.25586 0.12305 0.083984a0.10652 0.10652 0 0 0 0.083984 0.017578l3.3477-0.74609a0.10652 0.10652 0 0 0 0.078125-0.072265l0.47656-1.5723c0.082324-0.01113 0.15497-0.015625 0.2168-0.015625zm5.2949 2.3125c-0.01305 0.039048-0.031122 0.076475-0.044921 0.11524 0.10742-0.048019 0.23402-0.10406 0.22852-0.10156-0.05904 1.9e-4 -0.11874-0.010072-0.18359-0.013672zm-4.8926 2.3203c0.074261 0.083673 0.16887 0.18599 0.27539 0.29688-0.081987 0.01243-0.16282 0.02485-0.24414 0.03125-0.05275 0.0023-0.10976 0.008101-0.16016 0.007812h-0.019531c0.063516-0.14113 0.11215-0.25261 0.14844-0.33594zm0.41406 0.44141 0.039062 0.039063c0.24468 0.24707 0.56919 0.3969 0.91602 0.42187-0.4968 0.20045-1.0202 0.32135-1.5547 0.35742-0.42204 0.028225-0.85018-0.023751-1.2695-0.13867 0.03025-0.005769 0.061237-0.007918 0.091797-0.011718 0.034611-0.004334 0.78629-0.10535 1.125-0.60938l0.03125 0.001953 0.083984-0.001953c0.05645 0 0.1064-0.001907 0.16016-0.003907 0.12628-0.01103 0.25273-0.029427 0.37695-0.054687z" fill="#ba3044" fill-rule="evenodd"/>
</svg>
