<svg width="24" height="24" version="1.1" viewBox="0 0 24 24" xmlns="http://www.w3.org/2000/svg">
 <rect width="24" height="24" fill="#fff"/>
 <path d="m0-5e-7v24h24v-24zm14.691 6.6289c0.82614 0 1.5716 0.3466 2.0957 0.90625 0.64848-0.12437 1.2715-0.36471 1.8223-0.69336-0.21319 0.66622-0.66655 1.2267-1.2617 1.582 0.5774-0.0622 1.1371-0.22129 1.6523-0.44336-0.39086 0.56858-0.8798 1.0738-1.4394 1.4824 9e-3 0.12436 0.01 0.24868 0.01 0.37305 0 3.7931-2.8874 8.1641-8.1641 8.1641-1.6256 0-3.1359-0.46987-4.4062-1.2871 0.23096 0.0269 0.45352 0.0352 0.69336 0.0352 1.3414 0 2.5765-0.45376 3.5625-1.2266-1.2614-0.0269-2.3194-0.8532-2.6836-1.9902 0.17767 0.0269 0.35446 0.0449 0.54101 0.0449 0.25761 0 0.51602-0.0356 0.75586-0.0977-1.3147-0.26646-2.3008-1.4217-2.3008-2.8164v-0.0352c0.38197 0.21321 0.82605 0.34549 1.2969 0.36328-0.77284-0.51526-1.2793-1.3937-1.2793-2.3887 0-0.53299 0.1419-1.0208 0.39062-1.4473 1.4124 1.7411 3.5353 2.8776 5.916 3.002-0.0444-0.21321-0.0703-0.43612-0.0703-0.6582 0-1.5812 1.279-2.8691 2.8691-2.8691z" fill="#1da1f2"/>
</svg>
