<svg width="24" height="24" version="1.1" viewBox="0 0 24 24" xmlns="http://www.w3.org/2000/svg">
 <path d="m0 2e-7v24h24v-24zm12 4c2.216 0 4 1.784 4 4 0 0.73052-0.20757 1.406-0.54688 1.9941l-0.86328-0.5c0.25418-0.44094 0.41016-0.94661 0.41016-1.4941 0-1.662-1.338-3-3-3s-3 1.338-3 3c0 1.11 0.60455 2.0632 1.4961 2.582 3e-3 0.0017 5e-3 0.0042 8e-3 0.0059l2e-3 2e-3c0.14357 0.08403 0.29422 0.1561 0.45312 0.21485l-1.5566 2.6973c0.32313 0.31737 0.52953 0.74554 0.57813 1.2227 4e-3 0.02672 5e-3 0.05332 8e-3 0.08008 3e-3 0.04152 0.0117 0.08083 0.0117 0.12304 0 0.02544-7e-3 0.04902-8e-3 0.07422-3.1e-4 0.68984-0.34945 1.3594-0.99219 1.7305-0.95957 0.554-2.1784 0.22713-2.7324-0.73242-0.18222-0.31561-0.25925-0.65927-0.25977-0.99805-9.3e-4 -0.0252-8e-3 -0.04878-8e-3 -0.07422 0-0.01536 4e-3 -0.02964 4e-3 -0.04492 1e-3 -0.0237 6e-3 -0.04671 8e-3 -0.07031 0.0605-1.0528 0.91976-1.8848 1.9883-1.8848 0.18539 0 0.36112 0.0333 0.53125 0.08008l1.0566-1.832c-0.96263-0.72668-1.5879-1.8709-1.5879-3.1758 0-2.216 1.784-4 4-4zm0 2c0.0334 0 0.0646 0.0082 0.0977 0.0098 0.0798 0.0039 0.1587 0.0097 0.23828 0.02344 0.0616 0.01039 0.12015 0.02712 0.17968 0.04297 0.0604 0.01627 0.12027 0.03247 0.17969 0.05469 0.0753 0.02789 0.14618 0.0613 0.2168 0.09766 0.0289 0.01491 0.0594 0.02261 0.0879 0.03906 0.0156 9e-3 0.0276 0.02186 0.043 0.03125 0.0752 0.0461 0.14477 0.09896 0.21289 0.1543 0.0347 0.02805 0.0711 0.05401 0.10352 0.08398 0.0554 0.05152 0.10502 0.10853 0.15429 0.16602 0.0387 0.04498 0.0771 0.08888 0.11133 0.13672 0.0388 0.05429 0.0722 0.11174 0.10547 0.16992 0.0302 0.0528 0.0607 0.10505 0.0859 0.16016 0.0257 0.05623 0.044 0.11492 0.0644 0.17383 0.0239 0.06857 0.0481 0.1363 0.0644 0.20703 0.01 0.04293 0.0145 0.08691 0.0215 0.13086 0.0146 0.09021 0.0272 0.17967 0.0293 0.27148 3.8e-4 0.01594 4e-3 0.03085 4e-3 0.04687 0 0.03014-8e-3 0.05809-0.01 0.08789-4e-3 0.08359-0.0109 0.16665-0.0254 0.25-9e-3 0.0553-0.0214 0.10848-0.0351 0.16211-0.018 0.06896-0.0368 0.13736-0.0625 0.20508-0.0265 0.07032-0.0579 0.13688-0.0918 0.20312-0.0156 0.03045-0.0257 0.06183-0.043 0.0918-7e-3 0.01205-0.0182 0.01948-0.0254 0.03125-0.0868 0.1436-0.18572 0.27963-0.30469 0.39648l1.0527 1.8242c1.1106-0.47032 2.4149-0.43954 3.5449 0.21289 1.9191 1.108 2.5728 3.5438 1.4648 5.4629-1.108 1.9191-3.5457 2.5728-5.4648 1.4648-0.63265-0.36526-1.1134-0.88276-1.4531-1.4707l0.86523-0.49805c0.25477 0.4406 0.61372 0.8278 1.0879 1.1016 1.4393 0.831 3.2667 0.34168 4.0977-1.0977 0.831-1.4393 0.34168-3.2666-1.0977-4.0976-0.96124-0.55452-2.0898-0.5091-2.9844 0.0039-3e-3 2e-3 -4e-3 0.0019-8e-3 0.0039l-4e-3 2e-3c-0.14456 0.08231-0.28181 0.17691-0.41211 0.28516l-1.5586-2.6973c-0.0205 0.0057-0.0418 0.0067-0.0625 0.01172-0.0613 0.01474-0.12416 0.02227-0.1875 0.03125-0.0696 0.01013-0.13844 0.01875-0.20898 0.02149-0.0252 9.3e-4 -0.0488 0.0078-0.0742 0.0078-0.0375 0-0.0724-0.0097-0.10938-0.01172-0.0726-0.0039-0.14439-0.0095-0.21679-0.02148-0.0649-0.01062-0.12687-0.02631-0.18945-0.04297-0.0591-0.01588-0.11761-0.03112-0.17579-0.05274-0.0772-0.02843-0.1503-0.06228-0.22265-0.09961-0.0283-0.0146-0.0581-0.02296-0.0859-0.03906-0.0162-0.0093-0.0291-0.02154-0.0449-0.03125-0.0695-0.04271-0.13377-0.09194-0.19727-0.14258-0.042-0.03337-0.0843-0.06541-0.12304-0.10156-0.0563-0.05271-0.10642-0.11104-0.15625-0.16992-0.0331-0.039-0.0679-0.07607-0.0977-0.11719-0.0433-0.05991-0.0786-0.12476-0.11524-0.18945-0.0282-0.04985-0.0583-0.09851-0.082-0.15039-0.0257-0.05623-0.044-0.11492-0.0644-0.17383-0.0237-0.06798-0.0482-0.13497-0.0644-0.20508-0.0113-0.04915-0.0158-0.0999-0.0234-0.15039-0.0123-0.08062-0.023-0.1603-0.0254-0.24219-5.8e-4 -0.01992-6e-3 -0.03852-6e-3 -0.05859 0-0.03345 8e-3 -0.06462 0.01-0.09766 4e-3 -0.07908 0.01-0.15748 0.0234-0.23633 0.0106-0.06353 0.0265-0.12423 0.043-0.18555 0.0156-0.05722 0.0318-0.11356 0.0527-0.16992 0.0287-0.07813 0.0638-0.15146 0.10156-0.22461 0.0145-0.02802 0.0212-0.05832 0.0371-0.08594 9e-3 -0.01565 0.0219-0.02765 0.0312-0.04297 0.0461-0.07516 0.099-0.14478 0.15429-0.21289 0.028-0.03467 0.0541-0.07114 0.084-0.10352 0.0553-0.05946 0.11564-0.11367 0.17773-0.16602 0.0391-0.03308 0.0779-0.06595 0.11914-0.0957 0.0577-0.04153 0.11954-0.07603 0.18164-0.11133 0.0513-0.02918 0.10084-0.05955 0.1543-0.08398 0.0562-0.02566 0.11492-0.04398 0.17383-0.06445 0.0679-0.02369 0.13509-0.0482 0.20508-0.06445 0.0498-0.01143 0.10121-0.01578 0.15234-0.02344 0.0798-0.01217 0.15914-0.02299 0.24024-0.02539 0.0199-5.81e-4 0.0385-0.0059 0.0586-0.0059zm0.0605 1.0117c-0.0615-0.0037-0.12105 0.0042-0.18164 0.01172-0.069 0.0086-0.13739 0.01916-0.20118 0.04102-0.0593 0.02054-0.11515 0.0505-0.16992 0.08203-0.0557 0.0322-0.10998 0.06544-0.1582 0.10742-0.0515 0.045-0.0944 0.09985-0.13672 0.15625-0.0342 0.04559-0.0696 0.08943-0.0957 0.14062-0.0333 0.06574-0.0506 0.13439-0.0684 0.20312-0.0157 0.06075-0.0331 0.12081-0.0371 0.18555-4e-3 0.06055 4e-3 0.12002 0.0117 0.17969 9e-3 0.0703 0.0186 0.14016 0.041 0.20508 0.0203 0.05848 0.0511 0.11195 0.082 0.16601 0.0324 0.05627 0.0651 0.11154 0.10743 0.16016 0.043 0.04929 0.0969 0.08989 0.15039 0.13086 0.0493 0.0376 0.0963 0.07746 0.15234 0.10547 0.0594 0.02965 0.12171 0.04353 0.18359 0.06055 0.0668 0.01824 0.13342 0.03696 0.20508 0.04101 0.0566 0.0031 0.11214-0.0053 0.16797-0.01172 0.0724-0.0085 0.14423-0.01802 0.21094-0.04101 0.0585-0.02027 0.11195-0.05108 0.16601-0.08203 0.0563-0.03238 0.11154-0.06508 0.16016-0.10743 0.0493-0.04305 0.0899-0.09688 0.13086-0.15039 0.0376-0.04933 0.0775-0.09634 0.10547-0.15234 0.0297-0.0594 0.0435-0.12171 0.0606-0.18359 0.0182-0.06677 0.037-0.13342 0.041-0.20508 3e-3 -0.0566-5e-3 -0.11214-0.0117-0.16797-8e-3 -0.07235-0.018-0.14423-0.041-0.21094-0.0203-0.05848-0.0511-0.11195-0.082-0.16602-0.0324-0.05627-0.0651-0.11153-0.10743-0.16016-0.045-0.0515-0.0998-0.09436-0.15625-0.13672-0.0456-0.03416-0.0894-0.06964-0.14062-0.0957-0.0657-0.03333-0.13439-0.05056-0.20313-0.06836-0.0607-0.01568-0.12081-0.03307-0.18554-0.03711zm-4.0606 4.002v0.9961c-0.50895 3.3e-4 -1.0258 0.1188-1.5 0.39257-1.4393 0.831-1.9287 2.6583-1.0977 4.0977 0.831 1.4393 2.6583 1.9306 4.0977 1.0996 0.96086-0.5552 1.4853-1.5567 1.4883-2.5879 3e-5 -4e-3 2.7e-4 -0.0058 0-0.0098l2e-3 -2e-3c1e-3 -0.16634-0.0124-0.33304-0.041-0.5l3.1074-2e-3c0.0434-0.19467 0.10568-0.38801 0.21094-0.57032 0.554-0.95956 1.7729-1.2864 2.7324-0.73242 0.65452 0.37789 1.0053 1.0664 0.99219 1.7695 0.0128 0.70285-0.33795 1.3899-0.99219 1.7676-0.95956 0.554-2.1784 0.22715-2.7324-0.73242-0.0927-0.16054-0.15277-0.32928-0.19727-0.5l-2.1133 2e-3c-0.14802 1.197-0.82698 2.3105-1.957 2.9629-1.9191 1.108-4.3568 0.45427-5.4648-1.4648-1.108-1.9191-0.45427-4.3549 1.4648-5.4629 0.63265-0.36526 1.321-0.5232 2-0.52344zm-0.12305 2.9941c-0.12891 0.01615-0.257 0.05771-0.37695 0.12696-0.23441 0.13533-0.39012 0.34973-0.45898 0.58984-3e-3 0.01626-7e-3 0.03228-0.01 0.04883-0.0172 0.07371-0.0175 0.15034-0.0176 0.22656 0.0386 0.51823 0.4579 0.92773 0.98633 0.92773 0.52417 0 0.9379-0.40377 0.98242-0.91601 5.3e-4 -0.04204 0.0146-0.08286 0.01-0.125-4.1e-4 -0.0096-5e-3 -0.0178-6e-3 -0.02734-0.0177-0.12282-0.0551-0.24502-0.1211-0.35938-0.20775-0.35983-0.60154-0.54064-0.98828-0.49219zm8 0c-0.12891 0.01615-0.257 0.05771-0.37695 0.12696-0.30722 0.17736-0.46725 0.49171-0.48242 0.82031 0.01 0.33499 0.1697 0.65929 0.48242 0.83984 0.47978 0.277 1.0882 0.11259 1.3652-0.36719 0.0602-0.10432 0.0915-0.2163 0.11133-0.32812 5e-3 -0.04879 0.0121-0.09712 0.01-0.14649 9.5e-4 -0.03897-4e-3 -0.07662-8e-3 -0.11523-0.0193-0.11527-0.0512-0.23043-0.11329-0.33789-0.20775-0.35983-0.60154-0.54064-0.98828-0.49219z" fill="#fc0" fill-rule="evenodd"/>
</svg>
