<svg width="24" height="24" version="1.1" viewBox="0 0 24 24" xmlns="http://www.w3.org/2000/svg">
 <rect width="24" height="24" fill="#fff"/>
 <path d="m0 0v24h24v-24h-24zm16.66 7.877h3.3066l0.033203 0.029297v0.28906c0 0.078391-0.044548 0.11914-0.13281 0.11914-0.43319 0.019162-0.75501 0.11343-0.96289 0.28125-0.20846 0.16898-0.36961 0.40059-0.48633 0.70312 0 0-2.6923 6.1615-3.6133 8.209-0.35247 0.67126-0.69905 0.60934-1.0039-0.019531-0.45917-0.94568-1.185-2.5625-1.752-3.8145-0.62763 1.2978-1.4402 2.9651-1.9023 3.8223-0.41112 0.71481-0.7501 0.62228-1.0195 0.019531-0.93547-2.2072-2.8557-6.0841-3.7598-8.2559-0.16724-0.40009-0.29502-0.65619-0.41406-0.75781-0.11962-0.10046-0.36807-0.16132-0.74609-0.18164-0.13878-0.015098-0.20703-0.048932-0.20703-0.10352v-0.30273l0.033203-0.029297c0.61552-0.00348 3.5957 0 3.5957 0l0.033203 0.029297v0.28906c0 0.079553-0.051095 0.11719-0.15039 0.11719l-0.375 0.015625c-0.3217 0.013356-0.48242 0.11079-0.48242 0.28906 0 0.083037 0.034475 0.21669 0.10938 0.39844 0.72004 1.7542 3.207 7 3.207 7l0.089844 0.023437 1.6074-3.2051c-0.055955-0.12391-0.32422-0.70312-0.32422-0.70312l-1.1035-2.166s-0.21257-0.43412-0.28516-0.57812c-0.48429-0.95986-0.47338-1.0098-0.96289-1.0742-0.13704-0.018001-0.20703-0.035576-0.20703-0.10352v-0.30469l0.041016-0.029297c0.88437-0.00116 2.8516 0 2.8516 0l0.076172 0.023438v0.30273c0 0.069101-0.049935 0.10547-0.15039 0.10547l-0.20703 0.029297c-0.52261 0.040647-0.43708 0.25372-0.089843 0.94531l1.0566 2.1641 1.1699-2.332c0.19569-0.4268 0.15688-0.5341 0.076172-0.63281-0.046454-0.055745-0.20248-0.14427-0.54102-0.1582l-0.13281-0.015625c-0.03368 0-0.064923-0.010557-0.095703-0.033203-0.03019-0.021485-0.046875-0.050516-0.046875-0.085938v-0.28711l0.042969-0.029297c0.82805-0.00581 2.6875 0 2.6875 0l0.033203 0.03125v0.28711c0 0.079553-0.044553 0.11914-0.13281 0.11914-0.43319 0.020324-0.52312 0.062809-0.68164 0.29102-0.086521 0.12485-0.25649 0.39315-0.43359 0.69336l-1.5215 2.8418s-0.04142 0.084658-0.042968 0.087891l1.8594 3.8027 0.11328 0.03125 2.9258-6.9453c0.10162-0.27989 0.085728-0.47899-0.044922-0.5957-0.13123-0.11381-0.22338-0.18138-0.5625-0.19531l-0.27539-0.013672c-0.03368 0-0.064933-0.010556-0.095704-0.033203-0.03019-0.021485-0.046874-0.051678-0.046874-0.085938v-0.28906l0.042968-0.029297z"/>
</svg>
