<svg width="24" height="24" version="1.1" viewBox="0 0 24 24" xmlns="http://www.w3.org/2000/svg">
 <rect width="24" height="24" fill="#fff"/>
 <path d="m0 0v24h24v-24zm12 6.2969s5.0077 0.0011 6.2598 0.34375c0.68533 0.18451 1.2256 0.72483 1.4102 1.4102 0.34268 1.252 0.33008 3.8613 0.33008 3.8613s-6e-4 2.5956-0.33008 3.8477c-0.18452 0.68534-0.72482 1.2256-1.4102 1.4102-1.252 0.32949-6.2598 0.33008-6.2598 0.33008s-4.9945 8.6e-4 -6.2598-0.3418c-0.68533-0.18452-1.2256-0.72482-1.4102-1.4102-0.32949-1.2389-0.33008-3.8496-0.33008-3.8496s5.9e-4 -2.5956 0.33008-3.8477c0.18451-0.68533 0.73799-1.2393 1.4102-1.4238 1.252-0.32948 6.2598-0.33008 6.2598-0.33008zm-1.5957 3.2031v4.7969l4.166-2.3984z" fill="#f00"/>
</svg>
